<svg xmlns="http://www.w3.org/2000/svg" width="44px" height="16px" viewBox="0 0 44 16"><g fill="none" fill-rule="evenodd"><circle cx="8" cy="8" r="8" fill="#FF8000"/><circle cx="22" cy="8" r="8" fill="#00E054"/><path fill="#FFF" d="M15 4.124c.637 1.148 1 2.47 1 3.876a7.96 7.96 0 0 1-1 3.876A7.96 7.96 0 0 1 14 8c0-1.406.363-2.728 1-3.876"/><circle cx="36" cy="8" r="8" fill="#40BCF4"/><path fill="#FFF" d="M29 4.124c.637 1.148 1 2.47 1 3.876a7.96 7.96 0 0 1-1 3.876A7.96 7.96 0 0 1 28 8c0-1.406.363-2.728 1-3.876"/></g></svg>