<svg width="400" height="512" viewBox="0 0 400 512" fill="none" xmlns="http://www.w3.org/2000/svg">
<g clip-path="url(#clip0_1_2696)">
<path d="M200 0C273.454 0 333 59.5461 333 133H284.997C284.998 132.833 285 132.667 285 132.5C285 85.2797 246.72 47 199.5 47C152.28 47 114 85.2797 114 132.5C114 132.667 114.002 132.833 114.003 133H114V212H355C379.853 212 400 232.147 400 257V467C400 491.853 379.853 512 355 512H45C20.1472 512 9.66516e-07 491.853 0 467V257C0 232.147 20.1472 212 45 212H67V131H67.0156C68.0848 58.4683 127.214 0 200 0ZM178.133 297.812C168.133 292.038 155.633 299.256 155.633 310.803V414.107C155.633 425.654 168.133 432.871 178.133 427.098L267.598 375.445C277.598 369.672 277.598 355.237 267.598 349.464L178.133 297.812Z" fill="#AC0009"/>
</g>
<defs>
<clipPath id="clip0_1_2696">
<rect width="400" height="512" fill="white"/>
</clipPath>
</defs>
</svg>
