<svg width="2476" height="512" viewBox="0 0 2476 512" fill="none" xmlns="http://www.w3.org/2000/svg">
<g clip-path="url(#clip0_1_2696)">
<path d="M599.933 347V101.419H742.462L738.36 126.199H631.549V206.863H726.397V232.156H631.549V347H599.933ZM829.449 350.076C809.625 350.076 795.099 343.81 785.87 331.277C776.756 318.631 772.198 298.921 772.198 272.146V171.829H803.644V270.95C803.644 280.862 804.213 289.35 805.353 296.414C806.492 303.364 808.315 309.004 810.821 313.333C815.72 321.878 824.379 326.15 836.798 326.15C843.976 326.15 850.527 325.353 856.451 323.758C862.49 322.049 867.674 320.169 872.003 318.118C877.244 315.612 881.801 312.877 885.675 309.915V171.829H917.291V347L894.391 348.88L890.118 326.834C885.561 331.277 880.263 335.151 874.225 338.455C868.984 341.417 862.604 344.095 855.084 346.487C847.678 348.88 839.133 350.076 829.449 350.076ZM971.295 347V104.495L1002.74 101.419V347H971.295ZM1056.74 347V104.495L1088.19 101.419V347H1056.74ZM1206.28 351.102C1189.42 351.102 1175.69 349.677 1165.09 346.829C1154.5 343.867 1146.01 340.791 1139.63 337.601L1135.19 310.599C1142.59 314.244 1151.93 317.605 1163.21 320.682C1174.61 323.758 1187.94 325.296 1203.2 325.296C1220.64 325.296 1234.19 322.334 1243.88 316.409C1253.56 310.485 1258.4 299.035 1258.4 282.059C1258.4 272.26 1256.7 264.456 1253.28 258.646C1249.86 252.835 1243.82 247.822 1235.16 243.606C1226.62 239.277 1214.54 234.663 1198.93 229.764C1182.75 224.979 1169.71 219.738 1159.8 214.041C1149.88 208.23 1142.65 201.053 1138.09 192.508C1133.65 183.849 1131.48 172.854 1131.6 159.524C1132.05 143.802 1135.98 131.383 1143.39 122.269C1150.91 113.04 1160.88 106.489 1173.3 102.615C1185.83 98.6276 1199.84 96.6338 1215.34 96.6338C1225.48 96.6338 1235.67 97.5452 1245.93 99.3682C1256.18 101.077 1265.92 103.413 1275.15 106.375L1278.74 134.402C1272.25 131.782 1263.08 129.161 1251.23 126.541C1239.38 123.921 1227.3 122.61 1215 122.61C1199.27 122.61 1186.57 125.231 1176.89 130.472C1167.2 135.599 1162.36 145.625 1162.36 160.55C1162.59 167.728 1164.18 173.823 1167.14 178.836C1170.22 183.735 1175.52 188.121 1183.04 191.995C1190.67 195.869 1201.44 199.97 1215.34 204.3C1228.1 208.515 1239.15 212.674 1248.49 216.775C1257.95 220.763 1265.75 225.491 1271.91 230.96C1278.06 236.315 1282.61 243.151 1285.58 251.468C1288.65 259.671 1290.19 270.096 1290.19 282.742C1290.19 303.706 1283.64 320.34 1270.54 332.645C1257.44 344.949 1236.02 351.102 1206.28 351.102ZM1379.06 350.076C1371.31 350.076 1364.76 349.108 1359.41 347.171C1354.05 345.234 1349.72 341.93 1346.42 337.259C1340.04 328.258 1336.85 312.308 1336.85 289.407V189.603H1312.58V171.829H1338.04L1342.49 117.142L1367.95 112.186V171.829H1411.7V189.603H1368.46V296.072C1368.46 308.377 1369.49 316.694 1371.54 321.023C1373.7 325.353 1378.94 327.518 1387.26 327.518C1390.34 327.518 1393.3 327.404 1396.15 327.176C1399 326.834 1401.56 326.435 1403.84 325.979L1411.02 324.441L1408.28 346.487C1407.26 346.943 1406.12 347.285 1404.86 347.513C1403.61 347.854 1402.24 348.139 1400.76 348.367C1398.26 348.823 1395.18 349.222 1391.53 349.563C1388 349.905 1383.84 350.076 1379.06 350.076ZM1446.39 347V171.829L1468.44 170.12L1474.42 190.286C1481.03 183.45 1488.38 178.152 1496.47 174.393C1504.56 170.633 1512.93 168.753 1521.59 168.753C1523.87 168.753 1526.09 168.981 1528.25 169.437C1530.42 169.778 1532.35 170.177 1534.06 170.633C1535.77 171.089 1537.65 171.715 1539.7 172.513L1535.94 196.951C1535.49 196.609 1534.69 196.211 1533.55 195.755C1532.64 195.527 1531.33 195.299 1529.62 195.071C1527.91 194.729 1525.69 194.559 1522.96 194.559C1516.46 194.559 1510.48 195.413 1505.01 197.122C1499.54 198.831 1494.81 200.654 1490.83 202.591C1488.55 203.73 1486.33 204.983 1484.16 206.351C1482 207.604 1479.95 208.971 1478.01 210.452V347H1446.39ZM1687.87 341.873C1683.88 343.354 1679.33 344.721 1674.2 345.975C1669.87 347 1664.8 347.911 1658.99 348.709C1653.18 349.62 1646.8 350.076 1639.85 350.076C1584.48 350.076 1556.79 320.511 1556.79 261.38C1556.79 244.86 1558.73 230.903 1562.6 219.51C1566.48 208.003 1571.83 198.489 1578.67 190.97C1585.5 183.45 1593.59 177.868 1602.94 174.222C1612.28 170.576 1622.36 168.753 1633.18 168.753C1647.31 168.753 1659.16 171.601 1668.73 177.298C1678.3 182.994 1685.54 190.514 1690.44 199.856C1695.45 209.085 1698.07 218.997 1698.3 229.593C1698.3 232.669 1698.13 236.543 1697.78 241.214C1697.56 245.771 1697.21 250.101 1696.76 254.202C1696.42 258.19 1696.02 260.867 1695.56 262.234H1589.43V268.387C1589.43 283.084 1591.66 294.648 1596.1 303.079C1600.54 311.51 1606.7 317.492 1614.56 321.023C1622.53 324.441 1631.7 326.15 1642.07 326.15C1648.57 326.15 1654.72 325.809 1660.53 325.125C1666.45 324.327 1671.69 323.473 1676.25 322.562C1681.61 321.536 1686.56 320.34 1691.12 318.973L1687.87 341.873ZM1633.87 192.166C1628.51 192.166 1623.33 193.021 1618.32 194.729C1613.42 196.325 1608.97 199.059 1604.99 202.933C1601 206.806 1597.64 211.933 1594.9 218.313C1592.28 224.58 1590.63 232.84 1589.95 243.094H1670.78C1670.78 240.929 1670.84 239.505 1670.95 238.821C1671.07 238.252 1671.12 237.34 1671.12 236.087V233.523C1670.67 219.054 1666.97 208.572 1660.02 202.078C1653.07 195.47 1644.35 192.166 1633.87 192.166ZM1862.7 309.231C1862.7 315.84 1863.38 319.941 1864.75 321.536C1866.12 323.017 1868.85 323.758 1872.96 323.758C1874.21 323.758 1875.52 323.758 1876.89 323.758C1878.37 323.644 1879.68 323.587 1880.82 323.587L1878.42 346.658C1878.42 346.658 1877.17 346.715 1874.66 346.829C1872.27 346.943 1869.59 347.057 1866.63 347.171C1863.67 347.399 1861.28 347.513 1859.45 347.513C1852.96 347.513 1847.83 346.259 1844.07 343.753C1840.31 341.132 1837.64 338.227 1836.04 335.037C1834.45 331.733 1833.65 329.056 1833.65 327.005C1831.26 330.309 1827.67 333.784 1822.88 337.43C1818.1 340.962 1811.66 343.981 1803.57 346.487C1795.48 348.88 1785.23 350.076 1772.81 350.076C1757.66 350.076 1745.35 345.576 1735.89 336.575C1726.55 327.461 1721.88 315.27 1721.88 300.003C1721.88 286.331 1725.64 275.906 1733.16 268.729C1740.68 261.551 1750.42 256.652 1762.38 254.031C1774.35 251.297 1786.94 249.93 1800.15 249.93C1804.14 249.93 1808.01 250.101 1811.77 250.442C1815.53 250.67 1818.89 250.898 1821.86 251.126L1831.26 252.493V233.182C1831.26 220.991 1830 211.933 1827.5 206.009C1824.99 199.97 1820.83 195.983 1815.02 194.046C1809.32 192.109 1801.58 191.141 1791.78 191.141C1780.39 191.141 1769.85 192.337 1760.16 194.729C1750.59 197.008 1742.45 199.458 1735.72 202.078L1739.14 176.785C1744.5 174.507 1751.56 172.342 1760.33 170.291C1769.11 168.126 1780.39 167.044 1794.17 167.044C1812.63 167.044 1826.81 169.493 1836.72 174.393C1846.64 179.292 1853.42 187.267 1857.06 198.318C1860.82 209.37 1862.7 224.124 1862.7 242.581V309.231ZM1805.28 269.583C1800.27 269.583 1794.63 269.868 1788.36 270.438C1782.09 270.893 1776.11 272.146 1770.42 274.197C1764.72 276.134 1759.99 279.267 1756.23 283.597C1752.59 287.812 1750.76 293.68 1750.76 301.199C1750.76 309.972 1753.55 316.466 1759.14 320.682C1764.83 324.897 1772.87 327.005 1783.23 327.005C1794.85 327.005 1804.6 325.41 1812.46 322.22C1820.43 318.916 1826.7 315.555 1831.26 312.137V270.608L1822.88 270.096L1805.28 269.583ZM1919.44 347V171.829L1941.49 169.778L1946.1 189.432C1955.21 182.71 1964.73 177.583 1974.64 174.051C1984.67 170.519 1995.38 168.753 2006.77 168.753C2018.16 168.753 2027.11 170.633 2033.6 174.393C2040.21 178.038 2044.82 183.222 2047.44 189.944C2054.85 183.792 2063.39 178.722 2073.08 174.734C2082.76 170.747 2094.67 168.753 2108.79 168.753C2124.97 168.753 2136.88 174.45 2144.51 185.843C2152.15 197.122 2155.96 214.269 2155.96 237.283V347H2124.18V250.955C2124.18 240.473 2123.78 231.53 2122.98 224.124C2122.3 216.718 2120.99 210.737 2119.05 206.18C2115.52 197.407 2108.97 193.021 2099.4 193.021C2094.38 193.021 2088.57 193.932 2081.96 195.755C2075.36 197.464 2069.26 199.572 2063.68 202.078C2058.1 204.585 2054.28 206.863 2052.23 208.914L2053.42 218.143C2053.77 221.447 2054.05 225.662 2054.28 230.789C2054.62 235.802 2054.79 241.897 2054.79 249.075V347H2023V244.974C2023 224.466 2021.41 210.566 2018.22 203.274C2016.51 199.287 2014.17 196.609 2011.21 195.242C2008.36 193.761 2004.77 193.021 2000.45 193.021C1990.42 193.021 1981.08 194.843 1972.42 198.489C1963.87 202.135 1956.75 205.61 1951.06 208.914V347H1919.44ZM2330.79 341.873C2326.8 343.354 2322.25 344.721 2317.12 345.975C2312.79 347 2307.72 347.911 2301.91 348.709C2296.1 349.62 2289.72 350.076 2282.77 350.076C2227.4 350.076 2199.71 320.511 2199.71 261.38C2199.71 244.86 2201.65 230.903 2205.52 219.51C2209.4 208.003 2214.75 198.489 2221.59 190.97C2228.42 183.45 2236.51 177.868 2245.86 174.222C2255.2 170.576 2265.28 168.753 2276.1 168.753C2290.23 168.753 2302.08 171.601 2311.65 177.298C2321.22 182.994 2328.46 190.514 2333.36 199.856C2338.37 209.085 2340.99 218.997 2341.22 229.593C2341.22 232.669 2341.05 236.543 2340.7 241.214C2340.48 245.771 2340.13 250.101 2339.68 254.202C2339.34 258.19 2338.94 260.867 2338.48 262.234H2232.35V268.387C2232.35 283.084 2234.58 294.648 2239.02 303.079C2243.46 311.51 2249.62 317.492 2257.48 321.023C2265.45 324.441 2274.62 326.15 2284.99 326.15C2291.49 326.15 2297.64 325.809 2303.45 325.125C2309.37 324.327 2314.61 323.473 2319.17 322.562C2324.53 321.536 2329.48 320.34 2334.04 318.973L2330.79 341.873ZM2276.79 192.166C2271.43 192.166 2266.25 193.021 2261.24 194.729C2256.34 196.325 2251.89 199.059 2247.91 202.933C2243.92 206.806 2240.56 211.933 2237.82 218.313C2235.2 224.58 2233.55 232.84 2232.87 243.094H2313.7C2313.7 240.929 2313.76 239.505 2313.87 238.821C2313.99 238.252 2314.04 237.34 2314.04 236.087V233.523C2313.59 219.054 2309.89 208.572 2302.94 202.078C2295.99 195.47 2287.27 192.166 2276.79 192.166ZM2382.57 347V171.829L2404.62 170.12L2410.6 190.286C2417.21 183.45 2424.56 178.152 2432.65 174.393C2440.74 170.633 2449.11 168.753 2457.77 168.753C2460.05 168.753 2462.27 168.981 2464.43 169.437C2466.6 169.778 2468.54 170.177 2470.25 170.633C2471.95 171.089 2473.83 171.715 2475.88 172.513L2472.12 196.951C2471.67 196.609 2470.87 196.211 2469.73 195.755C2468.82 195.527 2467.51 195.299 2465.8 195.071C2464.09 194.729 2461.87 194.559 2459.14 194.559C2452.64 194.559 2446.66 195.413 2441.19 197.122C2435.72 198.831 2431 200.654 2427.01 202.591C2424.73 203.73 2422.51 204.983 2420.34 206.351C2418.18 207.604 2416.13 208.971 2414.19 210.452V347H2382.57Z" fill="#F1F4F9"/>
<path d="M599.597 466V396.536H639.042L637.882 403.545H608.733V426.893H632.516V433.612H608.733V458.991H638.945L637.833 466H599.597ZM659.538 466L643.683 416.452H653.061L664.807 458.217L676.892 416.452H686.028L670.221 466H659.538ZM730.404 464.55C729.276 464.969 727.987 465.355 726.537 465.71C725.312 466 723.878 466.258 722.235 466.483C720.591 466.741 718.787 466.87 716.821 466.87C701.159 466.87 693.328 458.507 693.328 441.782C693.328 437.109 693.875 433.161 694.971 429.938C696.067 426.684 697.582 423.993 699.515 421.866C701.449 419.739 703.737 418.16 706.379 417.128C709.022 416.097 711.874 415.582 714.936 415.582C718.932 415.582 722.283 416.387 724.99 417.999C727.697 419.61 729.744 421.737 731.129 424.379C732.547 426.99 733.289 429.793 733.353 432.791C733.353 433.661 733.305 434.756 733.208 436.078C733.144 437.367 733.047 438.591 732.918 439.751C732.821 440.879 732.708 441.637 732.58 442.023H702.561V443.764C702.561 447.921 703.189 451.192 704.446 453.577C705.703 455.961 707.443 457.653 709.667 458.652C711.922 459.619 714.517 460.103 717.449 460.103C719.286 460.103 721.026 460.006 722.67 459.812C724.346 459.587 725.828 459.345 727.117 459.087C728.632 458.797 730.034 458.459 731.323 458.072L730.404 464.55ZM715.129 422.204C713.614 422.204 712.148 422.446 710.73 422.929C709.344 423.38 708.087 424.154 706.959 425.25C705.832 426.345 704.881 427.795 704.107 429.6C703.366 431.373 702.899 433.709 702.706 436.609H725.57C725.57 435.997 725.586 435.594 725.619 435.401C725.651 435.24 725.667 434.982 725.667 434.627V433.902C725.538 429.81 724.491 426.845 722.525 425.008C720.559 423.139 718.094 422.204 715.129 422.204ZM745.051 466V416.452L751.287 415.968L752.979 421.672C754.848 419.739 756.927 418.24 759.215 417.177C761.503 416.113 763.872 415.582 766.321 415.582C766.965 415.582 767.594 415.646 768.206 415.775C768.818 415.872 769.366 415.984 769.85 416.113C770.333 416.242 770.865 416.419 771.445 416.645L770.381 423.558C770.252 423.461 770.027 423.348 769.705 423.219C769.447 423.155 769.076 423.09 768.593 423.026C768.109 422.929 767.481 422.881 766.708 422.881C764.871 422.881 763.179 423.123 761.632 423.606C760.085 424.089 758.748 424.605 757.62 425.153C756.975 425.475 756.347 425.83 755.734 426.216C755.122 426.571 754.542 426.958 753.994 427.376V466H745.051ZM788.025 486.738C786.027 486.738 784.207 486.544 782.563 486.158C780.919 485.771 779.501 485.336 778.309 484.853C776.923 484.305 775.667 483.676 774.539 482.967L775.167 476.876C776.521 477.424 777.81 477.859 779.034 478.182C780.162 478.504 781.371 478.794 782.66 479.052C783.981 479.31 785.254 479.438 786.479 479.438C787.961 479.438 788.976 478.875 789.524 477.747C790.104 476.651 790.636 475.217 791.119 473.444L792.279 468.272L775.07 416.452H784.69L796.727 459.426L808.667 416.452H818.141L801.077 468.9C799.82 472.768 798.66 476.022 797.597 478.665C796.533 481.34 795.276 483.354 793.826 484.708C792.376 486.061 790.442 486.738 788.025 486.738ZM841.828 466.87C839.636 466.87 837.783 466.596 836.269 466.048C834.754 465.5 833.529 464.566 832.595 463.245C830.79 460.699 829.888 456.187 829.888 449.709V421.479H823.023V416.452H830.226L831.483 400.983L838.686 399.581V416.452H851.061V421.479H838.831V451.595C838.831 455.075 839.121 457.428 839.701 458.652C840.313 459.877 841.795 460.489 844.148 460.489C845.018 460.489 845.856 460.457 846.662 460.393C847.467 460.296 848.192 460.183 848.837 460.054L850.867 459.619L850.094 465.855C849.804 465.984 849.481 466.081 849.127 466.145C848.772 466.242 848.386 466.322 847.967 466.387C847.258 466.516 846.388 466.628 845.356 466.725C844.357 466.822 843.181 466.87 841.828 466.87ZM860.874 466V397.406L869.816 396.536V421.286C872.427 419.223 875.021 417.757 877.599 416.887C880.209 416.017 883.174 415.582 886.494 415.582C892.069 415.582 896.065 417.29 898.482 420.706C900.899 424.122 902.107 429.938 902.107 438.156V466H893.165V438.833C893.165 434.482 892.826 431.115 892.149 428.73C891.473 426.345 890.474 424.702 889.152 423.799C887.831 422.865 886.188 422.397 884.222 422.397C882.224 422.397 880.274 422.768 878.373 423.509C876.503 424.25 874.812 425.04 873.297 425.878C871.814 426.716 870.654 427.28 869.816 427.57V466H860.874ZM916.706 406.735V397.938H925.987V406.735H916.706ZM916.948 466V416.162H925.456V466H916.948ZM940.731 466V416.452L946.967 415.872L948.272 421.431C949.045 420.851 949.996 420.222 951.124 419.545C952.284 418.836 953.605 418.192 955.088 417.612C956.538 417.032 958.149 416.548 959.922 416.162C961.727 415.775 963.644 415.582 965.674 415.582C968.22 415.582 970.476 415.936 972.442 416.645C974.44 417.354 976.132 418.514 977.518 420.125C978.903 421.705 979.951 423.799 980.66 426.41C981.401 428.988 981.771 432.13 981.771 435.836V466H972.829V437.77C972.829 435.127 972.684 432.839 972.394 430.905C972.104 428.972 971.62 427.376 970.943 426.12C969.622 423.67 967.286 422.446 963.934 422.446C962.129 422.446 960.373 422.688 958.665 423.171C956.989 423.654 955.475 424.17 954.121 424.718C953.348 425.04 952.59 425.395 951.849 425.781C951.108 426.136 950.383 426.522 949.674 426.941V466H940.731ZM1015.37 488.285C1013.43 488.285 1011.73 488.172 1010.24 487.946C1008.79 487.721 1007.57 487.479 1006.57 487.221C1005.38 486.867 1004.39 486.512 1003.62 486.158L1002.65 479.68C1003.81 480.099 1005.01 480.438 1006.23 480.695C1007.33 480.953 1008.58 481.179 1010 481.372C1011.45 481.598 1013 481.71 1014.64 481.71C1017.06 481.71 1019.04 481.453 1020.59 480.937C1022.17 480.454 1023.42 479.567 1024.36 478.278C1025.29 477.021 1025.94 475.297 1026.29 473.106C1026.68 470.915 1026.89 467.917 1026.92 464.115V462.52C1025.92 463.132 1024.73 463.712 1023.34 464.26C1022.18 464.711 1020.77 465.114 1019.09 465.468C1017.41 465.823 1015.5 466 1013.34 466C1010.86 466 1008.47 465.533 1006.18 464.598C1003.9 463.664 1001.85 462.213 1000.04 460.248C998.271 458.25 996.837 455.688 995.742 452.562C994.646 449.436 994.098 445.713 994.098 441.395C994.098 436.883 994.533 433 995.403 429.745C996.273 426.49 997.546 423.815 999.222 421.721C1000.87 419.626 1002.88 418.079 1005.26 417.08C1007.65 416.081 1010.36 415.582 1013.39 415.582C1017.32 415.582 1020.51 416.226 1022.96 417.515C1025.44 418.804 1027.29 419.948 1028.52 420.947L1030.11 416.162H1035.91V462.761C1035.91 467.466 1035.57 471.43 1034.9 474.653C1034.25 477.908 1033.14 480.534 1031.56 482.532C1029.98 484.562 1027.87 486.029 1025.23 486.931C1022.59 487.833 1019.3 488.285 1015.37 488.285ZM1014.45 459.232H1015.03C1016.9 459.2 1018.56 459.039 1020.01 458.749C1021.49 458.427 1022.75 458.088 1023.78 457.734C1025.04 457.283 1026.08 456.815 1026.92 456.332V426.265C1025.83 425.556 1024.65 424.927 1023.39 424.379C1022.3 423.896 1021.01 423.461 1019.52 423.074C1018.07 422.655 1016.48 422.446 1014.74 422.446C1012.55 422.446 1010.71 422.897 1009.23 423.799C1007.78 424.702 1006.59 425.958 1005.65 427.57C1004.75 429.181 1004.09 431.115 1003.67 433.371C1003.25 435.626 1003.04 438.124 1003.04 440.863C1003.04 443.635 1003.27 446.165 1003.72 448.453C1004.17 450.708 1004.86 452.642 1005.8 454.253C1007.73 457.541 1010.61 459.2 1014.45 459.232ZM1083.38 486.738C1081.38 486.738 1079.56 486.544 1077.92 486.158C1076.28 485.771 1074.86 485.336 1073.67 484.853C1072.28 484.305 1071.02 483.676 1069.9 482.967L1070.52 476.876C1071.88 477.424 1073.17 477.859 1074.39 478.182C1075.52 478.504 1076.73 478.794 1078.02 479.052C1079.34 479.31 1080.61 479.438 1081.83 479.438C1083.32 479.438 1084.33 478.875 1084.88 477.747C1085.46 476.651 1085.99 475.217 1086.48 473.444L1087.64 468.272L1070.43 416.452H1080.05L1092.08 459.426L1104.02 416.452H1113.5L1096.43 468.9C1095.18 472.768 1094.02 476.022 1092.95 478.665C1091.89 481.34 1090.63 483.354 1089.18 484.708C1087.73 486.061 1085.8 486.738 1083.38 486.738ZM1142.79 466.87C1137.83 466.87 1133.72 465.791 1130.46 463.631C1127.21 461.472 1124.79 458.475 1123.21 454.64C1121.63 450.805 1120.85 446.374 1120.85 441.347C1120.85 433.516 1122.63 427.264 1126.21 422.591C1129.82 417.918 1135.35 415.582 1142.79 415.582C1150.2 415.582 1155.7 417.918 1159.28 422.591C1162.88 427.264 1164.69 433.516 1164.69 441.347C1164.69 446.374 1163.9 450.805 1162.32 454.64C1160.74 458.475 1158.32 461.472 1155.07 463.631C1151.85 465.791 1147.75 466.87 1142.79 466.87ZM1142.79 460.103C1145.21 460.103 1147.24 459.651 1148.88 458.749C1150.56 457.847 1151.9 456.558 1152.89 454.882C1153.93 453.206 1154.65 451.208 1155.07 448.888C1155.49 446.535 1155.7 443.989 1155.7 441.25C1155.7 435.288 1154.75 430.664 1152.85 427.376C1150.94 424.089 1147.59 422.446 1142.79 422.446C1140.37 422.446 1138.34 422.865 1136.7 423.703C1135.09 424.508 1133.77 425.717 1132.74 427.328C1131.74 428.907 1131.01 430.873 1130.56 433.226C1130.11 435.546 1129.88 438.221 1129.88 441.25C1129.88 443.989 1130.11 446.535 1130.56 448.888C1131.01 451.208 1131.74 453.206 1132.74 454.882C1133.77 456.558 1135.09 457.847 1136.7 458.749C1138.34 459.651 1140.37 460.103 1142.79 460.103ZM1193.26 466.87C1187.65 466.87 1183.54 465.098 1180.93 461.553C1178.35 457.976 1177.06 452.4 1177.06 444.827V416.452H1185.96V444.489C1185.96 447.292 1186.12 449.693 1186.44 451.691C1186.76 453.657 1187.28 455.252 1187.99 456.477C1189.38 458.894 1191.82 460.103 1195.34 460.103C1197.37 460.103 1199.22 459.877 1200.9 459.426C1202.6 458.942 1204.07 458.411 1205.29 457.831C1206.78 457.122 1208.07 456.348 1209.16 455.51V416.452H1218.1V466L1211.63 466.532L1210.42 460.296C1209.13 461.553 1207.63 462.648 1205.92 463.583C1204.44 464.421 1202.64 465.178 1200.51 465.855C1198.41 466.532 1196 466.87 1193.26 466.87ZM1276.98 466.87C1274.31 466.87 1271.7 466.451 1269.15 465.613C1266.61 464.775 1264.33 463.374 1262.34 461.408C1260.31 459.41 1258.68 456.767 1257.45 453.48C1256.23 450.193 1255.62 446.213 1255.62 441.54C1255.62 438.253 1255.89 435.32 1256.44 432.742C1257.02 430.132 1257.81 427.86 1258.81 425.926C1259.77 423.96 1260.93 422.333 1262.29 421.044C1264.35 419.046 1266.61 417.644 1269.06 416.838C1271.54 416 1274.1 415.582 1276.74 415.582C1278.87 415.582 1280.8 415.727 1282.54 416.017C1284.28 416.274 1285.78 416.581 1287.04 416.935C1288.58 417.322 1289.91 417.773 1291 418.289L1291.73 424.814C1291.11 424.589 1290.45 424.379 1289.74 424.186C1289.07 423.96 1288.36 423.767 1287.62 423.606C1286.36 423.316 1284.91 423.042 1283.27 422.784C1281.62 422.526 1279.88 422.397 1278.05 422.397C1273.6 422.397 1270.31 423.864 1268.19 426.796C1267.09 428.343 1266.24 430.325 1265.62 432.742C1265.04 435.159 1264.75 438.043 1264.75 441.395C1264.75 447.808 1265.9 452.578 1268.19 455.704C1269.31 457.25 1270.7 458.378 1272.34 459.087C1273.99 459.764 1275.89 460.103 1278.05 460.103C1279.88 460.103 1281.62 459.99 1283.27 459.764C1284.94 459.506 1286.41 459.232 1287.67 458.942C1289.12 458.62 1290.49 458.233 1291.77 457.782L1291 464.211C1289.94 464.695 1288.63 465.146 1287.09 465.565C1285.86 465.919 1284.38 466.226 1282.64 466.483C1280.93 466.741 1279.05 466.87 1276.98 466.87ZM1338.76 455.317C1338.76 457.186 1338.95 458.346 1339.34 458.797C1339.73 459.216 1340.5 459.426 1341.66 459.426C1342.02 459.426 1342.39 459.426 1342.77 459.426C1343.19 459.394 1343.56 459.377 1343.89 459.377L1343.21 465.903C1343.21 465.903 1342.85 465.919 1342.15 465.952C1341.47 465.984 1340.71 466.016 1339.87 466.048C1339.04 466.113 1338.36 466.145 1337.84 466.145C1336.01 466.145 1334.56 465.791 1333.49 465.082C1332.43 464.34 1331.67 463.519 1331.22 462.616C1330.77 461.682 1330.54 460.924 1330.54 460.344C1329.87 461.279 1328.85 462.262 1327.5 463.293C1326.14 464.292 1324.32 465.146 1322.04 465.855C1319.75 466.532 1316.85 466.87 1313.33 466.87C1309.05 466.87 1305.57 465.597 1302.89 463.051C1300.25 460.473 1298.93 457.025 1298.93 452.707C1298.93 448.839 1299.99 445.891 1302.12 443.86C1304.25 441.83 1307 440.444 1310.39 439.703C1313.77 438.93 1317.33 438.543 1321.07 438.543C1322.2 438.543 1323.29 438.591 1324.36 438.688C1325.42 438.752 1326.37 438.817 1327.21 438.881L1329.87 439.268V433.806C1329.87 430.357 1329.51 427.795 1328.8 426.12C1328.09 424.412 1326.92 423.284 1325.27 422.736C1323.66 422.188 1321.47 421.914 1318.7 421.914C1315.48 421.914 1312.5 422.252 1309.76 422.929C1307.05 423.574 1304.75 424.267 1302.84 425.008L1303.81 417.854C1305.33 417.209 1307.32 416.597 1309.81 416.017C1312.29 415.404 1315.48 415.098 1319.38 415.098C1324.6 415.098 1328.61 415.791 1331.41 417.177C1334.22 418.562 1336.13 420.818 1337.17 423.944C1338.23 427.07 1338.76 431.244 1338.76 436.464V455.317ZM1322.52 444.102C1321.1 444.102 1319.51 444.183 1317.73 444.344C1315.96 444.473 1314.27 444.827 1312.66 445.407C1311.05 445.955 1309.71 446.841 1308.65 448.066C1307.61 449.258 1307.1 450.918 1307.1 453.045C1307.1 455.526 1307.89 457.363 1309.47 458.556C1311.08 459.748 1313.35 460.344 1316.28 460.344C1319.57 460.344 1322.33 459.893 1324.55 458.991C1326.81 458.056 1328.58 457.105 1329.87 456.139V444.392L1327.5 444.247L1322.52 444.102ZM1354.81 466V416.452L1361.05 415.872L1362.35 421.431C1363.12 420.851 1364.08 420.222 1365.2 419.545C1366.36 418.836 1367.68 418.192 1369.17 417.612C1370.62 417.032 1372.23 416.548 1374 416.162C1375.81 415.775 1377.72 415.582 1379.75 415.582C1382.3 415.582 1384.56 415.936 1386.52 416.645C1388.52 417.354 1390.21 418.514 1391.6 420.125C1392.98 421.705 1394.03 423.799 1394.74 426.41C1395.48 428.988 1395.85 432.13 1395.85 435.836V466H1386.91V437.77C1386.91 435.127 1386.76 432.839 1386.47 430.905C1386.18 428.972 1385.7 427.376 1385.02 426.12C1383.7 423.67 1381.36 422.446 1378.01 422.446C1376.21 422.446 1374.45 422.688 1372.74 423.171C1371.07 423.654 1369.55 424.17 1368.2 424.718C1367.43 425.04 1366.67 425.395 1365.93 425.781C1365.19 426.136 1364.46 426.522 1363.75 426.941V466H1354.81ZM1449.27 466.918C1446.75 466.918 1444.21 466.677 1441.63 466.193C1439.05 465.71 1436.57 465.033 1434.18 464.163L1433.27 456.864C1433.94 457.122 1435.1 457.508 1436.75 458.024C1438.39 458.507 1440.27 458.942 1442.4 459.329C1444.53 459.716 1446.64 459.909 1448.73 459.909C1450.76 459.909 1452.62 459.716 1454.29 459.329C1456 458.91 1457.37 458.153 1458.4 457.057C1459.43 455.929 1459.95 454.318 1459.95 452.223C1459.95 450.708 1459.61 449.468 1458.93 448.501C1458.26 447.502 1457.03 446.632 1455.26 445.891C1453.49 445.149 1450.94 444.36 1447.62 443.522C1442.82 442.297 1439.13 440.654 1436.55 438.591C1434.01 436.497 1432.73 433.113 1432.73 428.44C1432.73 425.185 1433.64 422.623 1435.44 420.754C1437.28 418.885 1439.61 417.563 1442.45 416.79C1445.32 415.984 1448.32 415.582 1451.44 415.582C1453.76 415.582 1456.03 415.775 1458.26 416.162C1460.51 416.516 1462.5 417 1464.2 417.612L1465.17 424.718C1464.04 424.363 1462.14 423.912 1459.47 423.364C1456.82 422.816 1454.16 422.542 1451.49 422.542C1448.59 422.542 1446.11 422.897 1444.05 423.606C1442.02 424.283 1441 425.958 1441 428.633C1441 430.051 1441.29 431.195 1441.87 432.065C1442.48 432.936 1443.64 433.709 1445.35 434.386C1447.06 435.03 1449.57 435.788 1452.89 436.658C1458.53 438.108 1462.51 439.993 1464.83 442.313C1467.18 444.602 1468.36 447.953 1468.36 452.368C1468.36 455.816 1467.47 458.62 1465.7 460.779C1463.93 462.906 1461.59 464.469 1458.69 465.468C1455.82 466.435 1452.68 466.918 1449.27 466.918ZM1494.03 466.87C1491.84 466.87 1489.98 466.596 1488.47 466.048C1486.96 465.5 1485.73 464.566 1484.8 463.245C1482.99 460.699 1482.09 456.187 1482.09 449.709V421.479H1475.22V416.452H1482.43L1483.68 400.983L1490.89 399.581V416.452H1503.26V421.479H1491.03V451.595C1491.03 455.075 1491.32 457.428 1491.9 458.652C1492.51 459.877 1494 460.489 1496.35 460.489C1497.22 460.489 1498.06 460.457 1498.86 460.393C1499.67 460.296 1500.39 460.183 1501.04 460.054L1503.07 459.619L1502.29 465.855C1502 465.984 1501.68 466.081 1501.33 466.145C1500.97 466.242 1500.59 466.322 1500.17 466.387C1499.46 466.516 1498.59 466.628 1497.56 466.725C1496.56 466.822 1495.38 466.87 1494.03 466.87ZM1513.07 466V416.452L1519.31 415.968L1521 421.672C1522.87 419.739 1524.95 418.24 1527.24 417.177C1529.53 416.113 1531.9 415.582 1534.34 415.582C1534.99 415.582 1535.62 415.646 1536.23 415.775C1536.84 415.872 1537.39 415.984 1537.87 416.113C1538.36 416.242 1538.89 416.419 1539.47 416.645L1538.4 423.558C1538.28 423.461 1538.05 423.348 1537.73 423.219C1537.47 423.155 1537.1 423.09 1536.62 423.026C1536.13 422.929 1535.5 422.881 1534.73 422.881C1532.89 422.881 1531.2 423.123 1529.66 423.606C1528.11 424.089 1526.77 424.605 1525.64 425.153C1525 425.475 1524.37 425.83 1523.76 426.216C1523.15 426.571 1522.57 426.958 1522.02 427.376V466H1513.07ZM1581.38 464.55C1580.25 464.969 1578.96 465.355 1577.51 465.71C1576.29 466 1574.85 466.258 1573.21 466.483C1571.57 466.741 1569.76 466.87 1567.8 466.87C1552.13 466.87 1544.3 458.507 1544.3 441.782C1544.3 437.109 1544.85 433.161 1545.95 429.938C1547.04 426.684 1548.56 423.993 1550.49 421.866C1552.42 419.739 1554.71 418.16 1557.35 417.128C1560 416.097 1562.85 415.582 1565.91 415.582C1569.91 415.582 1573.26 416.387 1575.96 417.999C1578.67 419.61 1580.72 421.737 1582.1 424.379C1583.52 426.99 1584.26 429.793 1584.33 432.791C1584.33 433.661 1584.28 434.756 1584.18 436.078C1584.12 437.367 1584.02 438.591 1583.89 439.751C1583.8 440.879 1583.68 441.637 1583.55 442.023H1553.54V443.764C1553.54 447.921 1554.16 451.192 1555.42 453.577C1556.68 455.961 1558.42 457.653 1560.64 458.652C1562.9 459.619 1565.49 460.103 1568.42 460.103C1570.26 460.103 1572 460.006 1573.64 459.812C1575.32 459.587 1576.8 459.345 1578.09 459.087C1579.61 458.797 1581.01 458.459 1582.3 458.072L1581.38 464.55ZM1566.1 422.204C1564.59 422.204 1563.12 422.446 1561.7 422.929C1560.32 423.38 1559.06 424.154 1557.93 425.25C1556.81 426.345 1555.86 427.795 1555.08 429.6C1554.34 431.373 1553.87 433.709 1553.68 436.609H1576.54C1576.54 435.997 1576.56 435.594 1576.59 435.401C1576.63 435.24 1576.64 434.982 1576.64 434.627V433.902C1576.51 429.81 1575.47 426.845 1573.5 425.008C1571.53 423.139 1569.07 422.204 1566.1 422.204ZM1630.83 455.317C1630.83 457.186 1631.02 458.346 1631.41 458.797C1631.8 459.216 1632.57 459.426 1633.73 459.426C1634.09 459.426 1634.46 459.426 1634.84 459.426C1635.26 459.394 1635.63 459.377 1635.95 459.377L1635.28 465.903C1635.28 465.903 1634.92 465.919 1634.21 465.952C1633.54 465.984 1632.78 466.016 1631.94 466.048C1631.1 466.113 1630.43 466.145 1629.91 466.145C1628.08 466.145 1626.62 465.791 1625.56 465.082C1624.5 464.34 1623.74 463.519 1623.29 462.616C1622.84 461.682 1622.61 460.924 1622.61 460.344C1621.94 461.279 1620.92 462.262 1619.57 463.293C1618.21 464.292 1616.39 465.146 1614.1 465.855C1611.82 466.532 1608.92 466.87 1605.4 466.87C1601.12 466.87 1597.64 465.597 1594.96 463.051C1592.32 460.473 1591 457.025 1591 452.707C1591 448.839 1592.06 445.891 1594.19 443.86C1596.32 441.83 1599.07 440.444 1602.46 439.703C1605.84 438.93 1609.4 438.543 1613.14 438.543C1614.27 438.543 1615.36 438.591 1616.43 438.688C1617.49 438.752 1618.44 438.817 1619.28 438.881L1621.94 439.268V433.806C1621.94 430.357 1621.58 427.795 1620.87 426.12C1620.16 424.412 1618.99 423.284 1617.34 422.736C1615.73 422.188 1613.54 421.914 1610.77 421.914C1607.55 421.914 1604.57 422.252 1601.83 422.929C1599.12 423.574 1596.82 424.267 1594.91 425.008L1595.88 417.854C1597.4 417.209 1599.39 416.597 1601.88 416.017C1604.36 415.404 1607.55 415.098 1611.45 415.098C1616.67 415.098 1620.68 415.791 1623.48 417.177C1626.29 418.562 1628.2 420.818 1629.24 423.944C1630.3 427.07 1630.83 431.244 1630.83 436.464V455.317ZM1614.59 444.102C1613.17 444.102 1611.58 444.183 1609.8 444.344C1608.03 444.473 1606.34 444.827 1604.73 445.407C1603.12 445.955 1601.78 446.841 1600.71 448.066C1599.68 449.258 1599.17 450.918 1599.17 453.045C1599.17 455.526 1599.96 457.363 1601.54 458.556C1603.15 459.748 1605.42 460.344 1608.35 460.344C1611.64 460.344 1614.4 459.893 1616.62 458.991C1618.87 458.056 1620.65 457.105 1621.94 456.139V444.392L1619.57 444.247L1614.59 444.102ZM1646.88 466V416.452L1653.12 415.872L1654.42 421.431C1657 419.529 1659.69 418.079 1662.49 417.08C1665.33 416.081 1668.36 415.582 1671.58 415.582C1674.8 415.582 1677.33 416.113 1679.17 417.177C1681.04 418.208 1682.34 419.674 1683.09 421.576C1685.18 419.835 1687.6 418.401 1690.34 417.273C1693.08 416.146 1696.44 415.582 1700.44 415.582C1705.02 415.582 1708.38 417.193 1710.54 420.416C1712.7 423.606 1713.78 428.456 1713.78 434.966V466H1704.79V438.833C1704.79 435.868 1704.68 433.338 1704.45 431.244C1704.26 429.149 1703.89 427.457 1703.34 426.168C1702.34 423.687 1700.49 422.446 1697.78 422.446C1696.36 422.446 1694.72 422.704 1692.85 423.219C1690.98 423.703 1689.26 424.299 1687.68 425.008C1686.1 425.717 1685.02 426.361 1684.44 426.941L1684.78 429.552C1684.87 430.486 1684.96 431.679 1685.02 433.129C1685.12 434.547 1685.16 436.271 1685.16 438.301V466H1676.17V437.141C1676.17 431.34 1675.72 427.409 1674.82 425.346C1674.34 424.218 1673.68 423.461 1672.84 423.074C1672.03 422.655 1671.02 422.446 1669.79 422.446C1666.96 422.446 1664.31 422.961 1661.86 423.993C1659.45 425.024 1657.43 426.007 1655.82 426.941V466H1646.88ZM1727.75 466.435V456.235H1736.94V466.435H1727.75ZM1803.36 467.16C1798.2 467.16 1793.62 466.435 1789.63 464.985C1785.63 463.502 1782.5 460.924 1780.25 457.25C1777.99 453.544 1776.87 448.388 1776.87 441.782V396.536H1786.1V441.202C1786.1 448.324 1787.47 453.238 1790.21 455.945C1791.62 457.331 1793.41 458.33 1795.57 458.942C1797.73 459.555 1800.31 459.861 1803.31 459.861C1809.17 459.861 1813.47 458.491 1816.21 455.752C1818.99 453.013 1820.37 448.163 1820.37 441.202V396.536H1829.56V441.83C1829.56 448.469 1828.41 453.625 1826.12 457.299C1823.87 460.973 1820.76 463.535 1816.79 464.985C1812.86 466.435 1808.38 467.16 1803.36 467.16ZM1844.59 466V416.452L1850.83 415.872L1852.13 421.431C1852.9 420.851 1853.85 420.222 1854.98 419.545C1856.14 418.836 1857.46 418.192 1858.95 417.612C1860.4 417.032 1862.01 416.548 1863.78 416.162C1865.58 415.775 1867.5 415.582 1869.53 415.582C1872.08 415.582 1874.33 415.936 1876.3 416.645C1878.3 417.354 1879.99 418.514 1881.38 420.125C1882.76 421.705 1883.81 423.799 1884.52 426.41C1885.26 428.988 1885.63 432.13 1885.63 435.836V466H1876.69V437.77C1876.69 435.127 1876.54 432.839 1876.25 430.905C1875.96 428.972 1875.48 427.376 1874.8 426.12C1873.48 423.67 1871.14 422.446 1867.79 422.446C1865.99 422.446 1864.23 422.688 1862.52 423.171C1860.85 423.654 1859.33 424.17 1857.98 424.718C1857.21 425.04 1856.45 425.395 1855.71 425.781C1854.97 426.136 1854.24 426.522 1853.53 426.941V466H1844.59ZM1900.47 466V397.406L1909.36 396.536V466H1900.47ZM1944.07 466.87C1939.11 466.87 1935 465.791 1931.75 463.631C1928.49 461.472 1926.07 458.475 1924.5 454.64C1922.92 450.805 1922.13 446.374 1922.13 441.347C1922.13 433.516 1923.92 427.264 1927.49 422.591C1931.1 417.918 1936.63 415.582 1944.07 415.582C1951.48 415.582 1956.98 417.918 1960.56 422.591C1964.17 427.264 1965.97 433.516 1965.97 441.347C1965.97 446.374 1965.18 450.805 1963.6 454.64C1962.02 458.475 1959.61 461.472 1956.35 463.631C1953.13 465.791 1949.04 466.87 1944.07 466.87ZM1944.07 460.103C1946.49 460.103 1948.52 459.651 1950.16 458.749C1951.84 457.847 1953.18 456.558 1954.18 454.882C1955.21 453.206 1955.93 451.208 1956.35 448.888C1956.77 446.535 1956.98 443.989 1956.98 441.25C1956.98 435.288 1956.03 430.664 1954.13 427.376C1952.23 424.089 1948.87 422.446 1944.07 422.446C1941.66 422.446 1939.63 422.865 1937.98 423.703C1936.37 424.508 1935.05 425.717 1934.02 427.328C1933.02 428.907 1932.29 430.873 1931.84 433.226C1931.39 435.546 1931.17 438.221 1931.17 441.25C1931.17 443.989 1931.39 446.535 1931.84 448.888C1932.29 451.208 1933.02 453.206 1934.02 454.882C1935.05 456.558 1936.37 457.847 1937.98 458.749C1939.63 459.651 1941.66 460.103 1944.07 460.103ZM1997.63 466.87C1994.96 466.87 1992.35 466.451 1989.8 465.613C1987.26 464.775 1984.98 463.374 1982.99 461.408C1980.96 459.41 1979.33 456.767 1978.1 453.48C1976.88 450.193 1976.27 446.213 1976.27 441.54C1976.27 438.253 1976.54 435.32 1977.09 432.742C1977.67 430.132 1978.46 427.86 1979.46 425.926C1980.42 423.96 1981.58 422.333 1982.94 421.044C1985 419.046 1987.26 417.644 1989.71 416.838C1992.19 416 1994.75 415.582 1997.39 415.582C1999.52 415.582 2001.45 415.727 2003.19 416.017C2004.93 416.274 2006.43 416.581 2007.69 416.935C2009.23 417.322 2010.56 417.773 2011.65 418.289L2012.38 424.814C2011.76 424.589 2011.1 424.379 2010.4 424.186C2009.72 423.96 2009.01 423.767 2008.27 423.606C2007.01 423.316 2005.56 423.042 2003.92 422.784C2002.27 422.526 2000.53 422.397 1998.7 422.397C1994.25 422.397 1990.96 423.864 1988.84 426.796C1987.74 428.343 1986.89 430.325 1986.27 432.742C1985.69 435.159 1985.4 438.043 1985.4 441.395C1985.4 447.808 1986.55 452.578 1988.84 455.704C1989.96 457.25 1991.35 458.378 1992.99 459.087C1994.64 459.764 1996.54 460.103 1998.7 460.103C2000.53 460.103 2002.27 459.99 2003.92 459.764C2005.59 459.506 2007.06 459.232 2008.32 458.942C2009.77 458.62 2011.14 458.233 2012.43 457.782L2011.65 464.211C2010.59 464.695 2009.28 465.146 2007.74 465.565C2006.51 465.919 2005.03 466.226 2003.29 466.483C2001.58 466.741 1999.7 466.87 1997.63 466.87ZM2023.54 466V397.406L2032.49 396.536V438.736L2055.16 416.452H2064.58V418.337L2043.22 438.978L2065.74 464.308V466H2056.56L2036.84 443.377L2032.49 447.389V466H2023.54ZM2107.51 464.55C2106.38 464.969 2105.09 465.355 2103.64 465.71C2102.42 466 2100.98 466.258 2099.34 466.483C2097.7 466.741 2095.89 466.87 2093.93 466.87C2078.26 466.87 2070.43 458.507 2070.43 441.782C2070.43 437.109 2070.98 433.161 2072.08 429.938C2073.17 426.684 2074.69 423.993 2076.62 421.866C2078.55 419.739 2080.84 418.16 2083.48 417.128C2086.13 416.097 2088.98 415.582 2092.04 415.582C2096.04 415.582 2099.39 416.387 2102.1 417.999C2104.8 419.61 2106.85 421.737 2108.23 424.379C2109.65 426.99 2110.39 429.793 2110.46 432.791C2110.46 433.661 2110.41 434.756 2110.31 436.078C2110.25 437.367 2110.15 438.591 2110.02 439.751C2109.93 440.879 2109.81 441.637 2109.69 442.023H2079.67V443.764C2079.67 447.921 2080.29 451.192 2081.55 453.577C2082.81 455.961 2084.55 457.653 2086.77 458.652C2089.03 459.619 2091.62 460.103 2094.55 460.103C2096.39 460.103 2098.13 460.006 2099.78 459.812C2101.45 459.587 2102.93 459.345 2104.22 459.087C2105.74 458.797 2107.14 458.459 2108.43 458.072L2107.51 464.55ZM2092.23 422.204C2090.72 422.204 2089.25 422.446 2087.84 422.929C2086.45 423.38 2085.19 424.154 2084.06 425.25C2082.94 426.345 2081.99 427.795 2081.21 429.6C2080.47 431.373 2080 433.709 2079.81 436.609H2102.68C2102.68 435.997 2102.69 435.594 2102.72 435.401C2102.76 435.24 2102.77 434.982 2102.77 434.627V433.902C2102.64 429.81 2101.6 426.845 2099.63 425.008C2097.66 423.139 2095.2 422.204 2092.23 422.204ZM2139.27 466.87C2136.88 466.87 2134.52 466.435 2132.16 465.565C2129.81 464.695 2127.72 463.261 2125.88 461.263C2124.01 459.265 2122.5 456.654 2121.33 453.432C2120.21 450.177 2119.64 446.197 2119.64 441.492C2119.64 435.369 2120.5 430.406 2122.21 426.603C2123.95 422.8 2126.25 420.013 2129.12 418.24C2131.99 416.468 2135.16 415.582 2138.64 415.582C2140.7 415.582 2142.6 415.791 2144.34 416.21C2146.08 416.597 2147.6 417.016 2148.89 417.467C2150.4 418.015 2151.77 418.627 2153 419.304V397.454L2161.84 396.536V466L2154.93 466.387L2153.38 461.069C2152.42 462.165 2151.26 463.132 2149.9 463.97C2148.74 464.711 2147.28 465.388 2145.5 466C2143.76 466.58 2141.69 466.87 2139.27 466.87ZM2140.67 460.103C2142.48 460.103 2144.12 459.861 2145.6 459.377C2147.12 458.894 2148.42 458.362 2149.52 457.782C2150.87 457.073 2152.03 456.284 2153 455.414V425.733C2151.84 425.153 2150.56 424.605 2149.18 424.089C2147.99 423.67 2146.62 423.3 2145.07 422.978C2143.52 422.623 2141.85 422.446 2140.04 422.446C2136.18 422.446 2133.29 424.122 2131.39 427.473C2129.49 430.825 2128.54 435.562 2128.54 441.685C2128.54 445.037 2128.86 447.889 2129.5 450.241C2130.18 452.562 2131.07 454.447 2132.16 455.897C2133.29 457.379 2134.58 458.459 2136.03 459.136C2137.48 459.78 2139.03 460.103 2140.67 460.103ZM2176.15 466.435V456.235H2185.34V466.435H2176.15Z" fill="#8F8F8F"/>
<path d="M200 0C273.454 2.47398e-05 333 59.5462 333 133H284.997C284.998 132.833 285 132.667 285 132.5C285 85.2797 246.72 47 199.5 47C152.28 47 114 85.2797 114 132.5C114 132.667 114.002 132.833 114.003 133H114V212H355C379.853 212 400 232.147 400 257V467C400 491.853 379.853 512 355 512H45C20.1472 512 3.14246e-05 491.853 0 467V257C3.38366e-05 232.147 20.1472 212 45 212H67V131H67.0156C68.0849 58.4684 127.214 0 200 0ZM178.133 297.812C168.133 292.038 155.633 299.256 155.633 310.803V414.107C155.633 425.654 168.133 432.871 178.133 427.098L267.598 375.445C277.598 369.672 277.598 355.237 267.598 349.464L178.133 297.812Z" fill="#AC0009"/>
</g>
<defs>
<clipPath id="clip0_1_2696">
<rect width="2476" height="512" fill="white"/>
</clipPath>
</defs>
</svg>
