<svg width="2050" height="512" viewBox="0 0 2050 512" fill="none" xmlns="http://www.w3.org/2000/svg">
<g clip-path="url(#clip0_1_2696)">
<path d="M200 0C273.454 0 333 59.5461 333 133H284.997C284.998 132.833 285 132.667 285 132.5C285 85.2797 246.72 47 199.5 47C152.28 47 114 85.2797 114 132.5C114 132.667 114.002 132.833 114.003 133H114V212H355C379.853 212 400 232.147 400 257V467C400 491.853 379.853 512 355 512H45C20.1472 512 9.66516e-07 491.853 0 467V257C0 232.147 20.1472 212 45 212H67V131H67.0156C68.0848 58.4683 127.214 0 200 0ZM178.133 297.812C168.133 292.038 155.633 299.256 155.633 310.803V414.107C155.633 425.654 168.133 432.871 178.133 427.098L267.598 375.445C277.598 369.672 277.598 355.237 267.598 349.464L178.133 297.812Z" fill="#AC0009"/>
<path d="M490.933 298V52.4189H633.462L629.36 77.1992H522.549V157.863H617.397V183.156H522.549V298H490.933ZM720.449 301.076C700.625 301.076 686.099 294.81 676.87 282.277C667.756 269.631 663.198 249.921 663.198 223.146V122.829H694.644V221.95C694.644 231.862 695.213 240.35 696.353 247.414C697.492 254.364 699.315 260.004 701.821 264.333C706.72 272.878 715.379 277.15 727.798 277.15C734.976 277.15 741.527 276.353 747.451 274.758C753.49 273.049 758.674 271.169 763.003 269.118C768.244 266.612 772.801 263.877 776.675 260.915V122.829H808.291V298L785.391 299.88L781.118 277.834C776.561 282.277 771.263 286.151 765.225 289.455C759.984 292.417 753.604 295.095 746.084 297.487C738.678 299.88 730.133 301.076 720.449 301.076ZM862.295 298V55.4951L893.74 52.4189V298H862.295ZM947.744 298V55.4951L979.189 52.4189V298H947.744ZM1097.28 302.102C1080.42 302.102 1066.69 300.677 1056.09 297.829C1045.5 294.867 1037.01 291.791 1030.63 288.601L1026.19 261.599C1033.59 265.244 1042.93 268.605 1054.21 271.682C1065.61 274.758 1078.94 276.296 1094.2 276.296C1111.64 276.296 1125.19 273.334 1134.88 267.409C1144.56 261.485 1149.4 250.035 1149.4 233.059C1149.4 223.26 1147.7 215.456 1144.28 209.646C1140.86 203.835 1134.82 198.822 1126.16 194.606C1117.62 190.277 1105.54 185.663 1089.93 180.764C1073.75 175.979 1060.71 170.738 1050.8 165.041C1040.88 159.23 1033.65 152.053 1029.09 143.508C1024.65 134.849 1022.48 123.854 1022.6 110.524C1023.05 94.8018 1026.98 82.3831 1034.39 73.2686C1041.91 64.04 1051.88 57.4889 1064.3 53.6152C1076.83 49.6276 1090.84 47.6338 1106.34 47.6338C1116.48 47.6338 1126.67 48.5452 1136.93 50.3682C1147.18 52.0771 1156.92 54.4128 1166.15 57.375L1169.74 85.4023C1163.25 82.7819 1154.08 80.1615 1142.23 77.541C1130.38 74.9206 1118.3 73.6104 1106 73.6104C1090.27 73.6104 1077.57 76.2308 1067.89 81.4717C1058.2 86.5986 1053.36 96.6247 1053.36 111.55C1053.59 118.728 1055.18 124.823 1058.14 129.836C1061.22 134.735 1066.52 139.121 1074.04 142.995C1081.67 146.869 1092.44 150.97 1106.34 155.3C1119.1 159.515 1130.15 163.674 1139.49 167.775C1148.95 171.763 1156.75 176.491 1162.91 181.96C1169.06 187.315 1173.61 194.151 1176.58 202.468C1179.65 210.671 1181.19 221.096 1181.19 233.742C1181.19 254.706 1174.64 271.34 1161.54 283.645C1148.44 295.949 1127.02 302.102 1097.28 302.102ZM1270.06 301.076C1262.31 301.076 1255.76 300.108 1250.41 298.171C1245.05 296.234 1240.72 292.93 1237.42 288.259C1231.04 279.258 1227.85 263.308 1227.85 240.407V140.603H1203.58V122.829H1229.04L1233.49 68.1416L1258.95 63.1855V122.829H1302.7V140.603H1259.46V247.072C1259.46 259.377 1260.49 267.694 1262.54 272.023C1264.7 276.353 1269.94 278.518 1278.26 278.518C1281.34 278.518 1284.3 278.404 1287.15 278.176C1290 277.834 1292.56 277.435 1294.84 276.979L1302.02 275.441L1299.28 297.487C1298.26 297.943 1297.12 298.285 1295.86 298.513C1294.61 298.854 1293.24 299.139 1291.76 299.367C1289.26 299.823 1286.18 300.222 1282.53 300.563C1279 300.905 1274.84 301.076 1270.06 301.076ZM1337.39 298V122.829L1359.44 121.12L1365.42 141.286C1372.03 134.45 1379.38 129.152 1387.47 125.393C1395.56 121.633 1403.93 119.753 1412.59 119.753C1414.87 119.753 1417.09 119.981 1419.25 120.437C1421.42 120.778 1423.35 121.177 1425.06 121.633C1426.77 122.089 1428.65 122.715 1430.7 123.513L1426.94 147.951C1426.49 147.609 1425.69 147.211 1424.55 146.755C1423.64 146.527 1422.33 146.299 1420.62 146.071C1418.91 145.729 1416.69 145.559 1413.96 145.559C1407.46 145.559 1401.48 146.413 1396.01 148.122C1390.54 149.831 1385.81 151.654 1381.83 153.591C1379.55 154.73 1377.33 155.983 1375.16 157.351C1373 158.604 1370.95 159.971 1369.01 161.452V298H1337.39ZM1578.87 292.873C1574.88 294.354 1570.33 295.721 1565.2 296.975C1560.87 298 1555.8 298.911 1549.99 299.709C1544.18 300.62 1537.8 301.076 1530.85 301.076C1475.48 301.076 1447.79 271.511 1447.79 212.38C1447.79 195.86 1449.73 181.903 1453.6 170.51C1457.48 159.003 1462.83 149.489 1469.67 141.97C1476.5 134.45 1484.59 128.868 1493.94 125.222C1503.28 121.576 1513.36 119.753 1524.18 119.753C1538.31 119.753 1550.16 122.601 1559.73 128.298C1569.3 133.994 1576.54 141.514 1581.44 150.856C1586.45 160.085 1589.07 169.997 1589.3 180.593C1589.3 183.669 1589.13 187.543 1588.78 192.214C1588.56 196.771 1588.21 201.101 1587.76 205.202C1587.42 209.19 1587.02 211.867 1586.56 213.234H1480.43V219.387C1480.43 234.084 1482.66 245.648 1487.1 254.079C1491.54 262.51 1497.7 268.492 1505.56 272.023C1513.53 275.441 1522.7 277.15 1533.07 277.15C1539.57 277.15 1545.72 276.809 1551.53 276.125C1557.45 275.327 1562.69 274.473 1567.25 273.562C1572.61 272.536 1577.56 271.34 1582.12 269.973L1578.87 292.873ZM1524.87 143.166C1519.51 143.166 1514.33 144.021 1509.32 145.729C1504.42 147.325 1499.97 150.059 1495.99 153.933C1492 157.806 1488.64 162.933 1485.9 169.313C1483.28 175.58 1481.63 183.84 1480.95 194.094H1561.78C1561.78 191.929 1561.84 190.505 1561.95 189.821C1562.07 189.252 1562.12 188.34 1562.12 187.087V184.523C1561.67 170.054 1557.97 159.572 1551.02 153.078C1544.07 146.47 1535.35 143.166 1524.87 143.166ZM1753.7 260.231C1753.7 266.84 1754.38 270.941 1755.75 272.536C1757.12 274.017 1759.85 274.758 1763.96 274.758C1765.21 274.758 1766.52 274.758 1767.89 274.758C1769.37 274.644 1770.68 274.587 1771.82 274.587L1769.42 297.658C1769.42 297.658 1768.17 297.715 1765.66 297.829C1763.27 297.943 1760.59 298.057 1757.63 298.171C1754.67 298.399 1752.28 298.513 1750.45 298.513C1743.96 298.513 1738.83 297.259 1735.07 294.753C1731.31 292.132 1728.64 289.227 1727.04 286.037C1725.45 282.733 1724.65 280.056 1724.65 278.005C1722.26 281.309 1718.67 284.784 1713.88 288.43C1709.1 291.962 1702.66 294.981 1694.57 297.487C1686.48 299.88 1676.23 301.076 1663.81 301.076C1648.66 301.076 1636.35 296.576 1626.89 287.575C1617.55 278.461 1612.88 266.27 1612.88 251.003C1612.88 237.331 1616.64 226.906 1624.16 219.729C1631.68 212.551 1641.42 207.652 1653.38 205.031C1665.35 202.297 1677.94 200.93 1691.15 200.93C1695.14 200.93 1699.01 201.101 1702.77 201.442C1706.53 201.67 1709.89 201.898 1712.86 202.126L1722.26 203.493V184.182C1722.26 171.991 1721 162.933 1718.5 157.009C1715.99 150.97 1711.83 146.983 1706.02 145.046C1700.32 143.109 1692.58 142.141 1682.78 142.141C1671.39 142.141 1660.85 143.337 1651.16 145.729C1641.59 148.008 1633.45 150.458 1626.72 153.078L1630.14 127.785C1635.5 125.507 1642.56 123.342 1651.33 121.291C1660.11 119.126 1671.39 118.044 1685.17 118.044C1703.63 118.044 1717.81 120.493 1727.72 125.393C1737.64 130.292 1744.42 138.267 1748.06 149.318C1751.82 160.37 1753.7 175.124 1753.7 193.581V260.231ZM1696.28 220.583C1691.27 220.583 1685.63 220.868 1679.36 221.438C1673.09 221.893 1667.11 223.146 1661.42 225.197C1655.72 227.134 1650.99 230.267 1647.23 234.597C1643.59 238.812 1641.76 244.68 1641.76 252.199C1641.76 260.972 1644.55 267.466 1650.14 271.682C1655.83 275.897 1663.87 278.005 1674.23 278.005C1685.85 278.005 1695.6 276.41 1703.46 273.22C1711.43 269.916 1717.7 266.555 1722.26 263.137V221.608L1713.88 221.096L1696.28 220.583ZM1810.44 298V122.829L1832.49 120.778L1837.1 140.432C1846.21 133.71 1855.73 128.583 1865.64 125.051C1875.67 121.519 1886.38 119.753 1897.77 119.753C1909.16 119.753 1918.11 121.633 1924.6 125.393C1931.21 129.038 1935.82 134.222 1938.44 140.944C1945.85 134.792 1954.39 129.722 1964.08 125.734C1973.76 121.747 1985.67 119.753 1999.79 119.753C2015.97 119.753 2027.88 125.45 2035.51 136.843C2043.15 148.122 2046.96 165.269 2046.96 188.283V298H2015.18V201.955C2015.18 191.473 2014.78 182.53 2013.98 175.124C2013.3 167.718 2011.99 161.737 2010.05 157.18C2006.52 148.407 1999.97 144.021 1990.4 144.021C1985.38 144.021 1979.57 144.932 1972.96 146.755C1966.36 148.464 1960.26 150.572 1954.68 153.078C1949.1 155.585 1945.28 157.863 1943.23 159.914L1944.42 169.143C1944.77 172.447 1945.05 176.662 1945.28 181.789C1945.62 186.802 1945.79 192.897 1945.79 200.075V298H1914V195.974C1914 175.466 1912.41 161.566 1909.22 154.274C1907.51 150.287 1905.17 147.609 1902.21 146.242C1899.36 144.761 1895.77 144.021 1891.45 144.021C1881.42 144.021 1872.08 145.843 1863.42 149.489C1854.87 153.135 1847.75 156.61 1842.06 159.914V298H1810.44Z" fill="#3D3D3D"/>
<path d="M484.75 459V389.536H524.195L523.035 396.545H493.886V419.893H517.669V426.612H493.886V451.991H524.098L522.986 459H484.75ZM544.691 459L528.835 409.452H538.213L549.96 451.217L562.045 409.452H571.181L555.374 459H544.691ZM615.557 457.55C614.429 457.969 613.14 458.355 611.69 458.71C610.465 459 609.031 459.258 607.388 459.483C605.744 459.741 603.939 459.87 601.974 459.87C586.312 459.87 578.48 451.507 578.48 434.782C578.48 430.109 579.028 426.161 580.124 422.938C581.22 419.684 582.734 416.993 584.668 414.866C586.602 412.739 588.89 411.16 591.532 410.128C594.175 409.097 597.027 408.582 600.088 408.582C604.084 408.582 607.436 409.387 610.143 410.999C612.85 412.61 614.896 414.737 616.282 417.379C617.7 419.99 618.441 422.793 618.506 425.791C618.506 426.661 618.458 427.756 618.361 429.078C618.296 430.367 618.2 431.591 618.071 432.751C617.974 433.879 617.861 434.637 617.732 435.023H587.713V436.764C587.713 440.921 588.342 444.192 589.599 446.577C590.855 448.961 592.596 450.653 594.819 451.652C597.075 452.619 599.669 453.103 602.602 453.103C604.439 453.103 606.179 453.006 607.823 452.812C609.499 452.587 610.981 452.345 612.27 452.087C613.785 451.797 615.187 451.459 616.476 451.072L615.557 457.55ZM600.282 415.204C598.767 415.204 597.301 415.446 595.883 415.929C594.497 416.38 593.24 417.154 592.112 418.25C590.984 419.345 590.034 420.795 589.26 422.6C588.519 424.373 588.052 426.709 587.858 429.609H610.723C610.723 428.997 610.739 428.594 610.771 428.401C610.804 428.24 610.82 427.982 610.82 427.627V426.902C610.691 422.81 609.644 419.845 607.678 418.008C605.712 416.139 603.247 415.204 600.282 415.204ZM630.204 459V409.452L636.44 408.968L638.132 414.672C640.001 412.739 642.08 411.24 644.368 410.177C646.656 409.113 649.024 408.582 651.474 408.582C652.118 408.582 652.747 408.646 653.359 408.775C653.971 408.872 654.519 408.984 655.002 409.113C655.486 409.242 656.018 409.419 656.598 409.645L655.534 416.558C655.405 416.461 655.18 416.348 654.857 416.219C654.6 416.155 654.229 416.09 653.746 416.026C653.262 415.929 652.634 415.881 651.86 415.881C650.023 415.881 648.332 416.123 646.785 416.606C645.238 417.089 643.9 417.605 642.772 418.153C642.128 418.475 641.5 418.83 640.887 419.216C640.275 419.571 639.695 419.958 639.147 420.376V459H630.204ZM673.178 479.738C671.18 479.738 669.359 479.544 667.716 479.158C666.072 478.771 664.654 478.336 663.462 477.853C662.076 477.305 660.819 476.676 659.691 475.967L660.32 469.876C661.673 470.424 662.962 470.859 664.187 471.182C665.315 471.504 666.523 471.794 667.812 472.052C669.134 472.31 670.407 472.438 671.631 472.438C673.114 472.438 674.129 471.875 674.677 470.747C675.257 469.651 675.789 468.217 676.272 466.444L677.432 461.272L660.223 409.452H669.843L681.879 452.426L693.819 409.452H703.294L686.23 461.9C684.973 465.768 683.813 469.022 682.75 471.665C681.686 474.34 680.429 476.354 678.979 477.708C677.529 479.061 675.595 479.738 673.178 479.738ZM726.98 459.87C724.789 459.87 722.936 459.596 721.421 459.048C719.907 458.5 718.682 457.566 717.748 456.245C715.943 453.699 715.041 449.187 715.041 442.709V414.479H708.176V409.452H715.379L716.636 393.983L723.838 392.581V409.452H736.213V414.479H723.983V444.595C723.983 448.075 724.273 450.428 724.854 451.652C725.466 452.877 726.948 453.489 729.301 453.489C730.171 453.489 731.009 453.457 731.814 453.393C732.62 453.296 733.345 453.183 733.99 453.054L736.02 452.619L735.247 458.855C734.957 458.984 734.634 459.081 734.28 459.145C733.925 459.242 733.539 459.322 733.12 459.387C732.411 459.516 731.541 459.628 730.509 459.725C729.51 459.822 728.334 459.87 726.98 459.87ZM746.026 459V390.406L754.969 389.536V414.286C757.58 412.223 760.174 410.757 762.752 409.887C765.362 409.017 768.327 408.582 771.646 408.582C777.222 408.582 781.218 410.29 783.635 413.706C786.052 417.122 787.26 422.938 787.26 431.156V459H778.317V431.833C778.317 427.482 777.979 424.115 777.302 421.73C776.625 419.345 775.626 417.702 774.305 416.799C772.984 415.865 771.34 415.397 769.375 415.397C767.376 415.397 765.427 415.768 763.525 416.509C761.656 417.25 759.964 418.04 758.45 418.878C756.967 419.716 755.807 420.28 754.969 420.57V459H746.026ZM801.859 399.735V390.938H811.14V399.735H801.859ZM802.101 459V409.162H810.608V459H802.101ZM825.884 459V409.452L832.12 408.872L833.425 414.431C834.198 413.851 835.149 413.222 836.277 412.545C837.437 411.836 838.758 411.192 840.241 410.612C841.691 410.032 843.302 409.548 845.075 409.162C846.879 408.775 848.797 408.582 850.827 408.582C853.373 408.582 855.629 408.936 857.595 409.645C859.593 410.354 861.285 411.514 862.67 413.125C864.056 414.705 865.104 416.799 865.812 419.41C866.554 421.988 866.924 425.13 866.924 428.836V459H857.981V430.77C857.981 428.127 857.836 425.839 857.546 423.905C857.256 421.972 856.773 420.376 856.096 419.12C854.775 416.67 852.438 415.446 849.087 415.446C847.282 415.446 845.526 415.688 843.818 416.171C842.142 416.654 840.627 417.17 839.274 417.718C838.5 418.04 837.743 418.395 837.002 418.781C836.261 419.136 835.536 419.522 834.827 419.941V459H825.884ZM900.521 481.285C898.587 481.285 896.879 481.172 895.396 480.946C893.946 480.721 892.722 480.479 891.723 480.221C890.53 479.867 889.547 479.512 888.774 479.158L887.807 472.68C888.967 473.099 890.16 473.438 891.384 473.695C892.48 473.953 893.737 474.179 895.155 474.372C896.605 474.598 898.152 474.71 899.795 474.71C902.212 474.71 904.194 474.453 905.741 473.937C907.32 473.454 908.577 472.567 909.512 471.278C910.446 470.021 911.091 468.297 911.445 466.106C911.832 463.915 912.042 460.917 912.074 457.115V455.52C911.075 456.132 909.882 456.712 908.497 457.26C907.336 457.711 905.918 458.114 904.243 458.468C902.567 458.823 900.649 459 898.49 459C896.009 459 893.624 458.533 891.336 457.598C889.048 456.664 887.001 455.213 885.197 453.248C883.424 451.25 881.99 448.688 880.895 445.562C879.799 442.436 879.251 438.713 879.251 434.395C879.251 429.883 879.686 426 880.556 422.745C881.426 419.49 882.699 416.815 884.375 414.721C886.019 412.626 888.033 411.079 890.417 410.08C892.802 409.081 895.509 408.582 898.539 408.582C902.47 408.582 905.661 409.226 908.11 410.515C910.591 411.804 912.444 412.948 913.669 413.947L915.264 409.162H921.065V455.761C921.065 460.466 920.727 464.43 920.05 467.653C919.405 470.908 918.293 473.534 916.714 475.532C915.135 477.562 913.024 479.029 910.382 479.931C907.739 480.833 904.452 481.285 900.521 481.285ZM899.602 452.232H900.182C902.051 452.2 903.711 452.039 905.161 451.749C906.644 451.427 907.9 451.088 908.932 450.734C910.188 450.283 911.236 449.815 912.074 449.332V419.265C910.978 418.556 909.802 417.927 908.545 417.379C907.449 416.896 906.16 416.461 904.678 416.074C903.228 415.655 901.632 415.446 899.892 415.446C897.701 415.446 895.864 415.897 894.381 416.799C892.931 417.702 891.739 418.958 890.804 420.57C889.902 422.181 889.241 424.115 888.822 426.371C888.403 428.626 888.194 431.124 888.194 433.863C888.194 436.635 888.419 439.165 888.871 441.453C889.322 443.708 890.015 445.642 890.949 447.253C892.883 450.541 895.767 452.2 899.602 452.232ZM968.535 479.738C966.537 479.738 964.716 479.544 963.072 479.158C961.429 478.771 960.011 478.336 958.818 477.853C957.433 477.305 956.176 476.676 955.048 475.967L955.676 469.876C957.03 470.424 958.319 470.859 959.543 471.182C960.671 471.504 961.88 471.794 963.169 472.052C964.49 472.31 965.763 472.438 966.988 472.438C968.47 472.438 969.485 471.875 970.033 470.747C970.613 469.651 971.145 468.217 971.628 466.444L972.789 461.272L955.58 409.452H965.199L977.236 452.426L989.176 409.452H998.65L981.586 461.9C980.33 465.768 979.169 469.022 978.106 471.665C977.042 474.34 975.786 476.354 974.335 477.708C972.885 479.061 970.952 479.738 968.535 479.738ZM1027.94 459.87C1022.98 459.87 1018.87 458.791 1015.62 456.631C1012.36 454.472 1009.95 451.475 1008.37 447.64C1006.79 443.805 1006 439.374 1006 434.347C1006 426.516 1007.79 420.264 1011.36 415.591C1014.97 410.918 1020.5 408.582 1027.94 408.582C1035.36 408.582 1040.85 410.918 1044.43 415.591C1048.04 420.264 1049.84 426.516 1049.84 434.347C1049.84 439.374 1049.05 443.805 1047.47 447.64C1045.89 451.475 1043.48 454.472 1040.22 456.631C1037 458.791 1032.91 459.87 1027.94 459.87ZM1027.94 453.103C1030.36 453.103 1032.39 452.651 1034.04 451.749C1035.71 450.847 1037.05 449.558 1038.05 447.882C1039.08 446.206 1039.8 444.208 1040.22 441.888C1040.64 439.535 1040.85 436.989 1040.85 434.25C1040.85 428.288 1039.9 423.664 1038 420.376C1036.1 417.089 1032.75 415.446 1027.94 415.446C1025.53 415.446 1023.5 415.865 1021.85 416.703C1020.24 417.508 1018.92 418.717 1017.89 420.328C1016.89 421.907 1016.17 423.873 1015.71 426.226C1015.26 428.546 1015.04 431.221 1015.04 434.25C1015.04 436.989 1015.26 439.535 1015.71 441.888C1016.17 444.208 1016.89 446.206 1017.89 447.882C1018.92 449.558 1020.24 450.847 1021.85 451.749C1023.5 452.651 1025.53 453.103 1027.94 453.103ZM1078.41 459.87C1072.8 459.87 1068.69 458.098 1066.08 454.553C1063.51 450.976 1062.22 445.4 1062.22 437.827V409.452H1071.11V437.489C1071.11 440.292 1071.27 442.693 1071.6 444.691C1071.92 446.657 1072.43 448.252 1073.14 449.477C1074.53 451.894 1076.98 453.103 1080.49 453.103C1082.52 453.103 1084.37 452.877 1086.05 452.426C1087.76 451.942 1089.22 451.411 1090.45 450.831C1091.93 450.122 1093.22 449.348 1094.31 448.51V409.452H1103.26V459L1096.78 459.532L1095.57 453.296C1094.28 454.553 1092.78 455.648 1091.08 456.583C1089.59 457.421 1087.79 458.178 1085.66 458.855C1083.57 459.532 1081.15 459.87 1078.41 459.87ZM1162.14 459.87C1159.46 459.87 1156.85 459.451 1154.3 458.613C1151.76 457.775 1149.49 456.374 1147.49 454.408C1145.46 452.41 1143.83 449.767 1142.61 446.48C1141.38 443.193 1140.77 439.213 1140.77 434.54C1140.77 431.253 1141.04 428.32 1141.59 425.742C1142.17 423.132 1142.96 420.86 1143.96 418.926C1144.93 416.96 1146.09 415.333 1147.44 414.044C1149.5 412.046 1151.76 410.644 1154.21 409.838C1156.69 409 1159.25 408.582 1161.89 408.582C1164.02 408.582 1165.95 408.727 1167.69 409.017C1169.44 409.274 1170.93 409.581 1172.19 409.935C1173.74 410.322 1175.06 410.773 1176.15 411.289L1176.88 417.814C1176.27 417.589 1175.61 417.379 1174.9 417.186C1174.22 416.96 1173.51 416.767 1172.77 416.606C1171.51 416.316 1170.06 416.042 1168.42 415.784C1166.78 415.526 1165.04 415.397 1163.2 415.397C1158.75 415.397 1155.46 416.864 1153.34 419.796C1152.24 421.343 1151.39 423.325 1150.78 425.742C1150.2 428.159 1149.91 431.043 1149.91 434.395C1149.91 440.808 1151.05 445.578 1153.34 448.704C1154.47 450.25 1155.85 451.378 1157.5 452.087C1159.14 452.764 1161.04 453.103 1163.2 453.103C1165.04 453.103 1166.78 452.99 1168.42 452.764C1170.1 452.506 1171.56 452.232 1172.82 451.942C1174.27 451.62 1175.64 451.233 1176.93 450.782L1176.15 457.211C1175.09 457.695 1173.79 458.146 1172.24 458.565C1171.01 458.919 1169.53 459.226 1167.79 459.483C1166.08 459.741 1164.2 459.87 1162.14 459.87ZM1223.91 448.317C1223.91 450.186 1224.11 451.346 1224.49 451.797C1224.88 452.216 1225.65 452.426 1226.81 452.426C1227.17 452.426 1227.54 452.426 1227.93 452.426C1228.35 452.394 1228.72 452.377 1229.04 452.377L1228.36 458.903C1228.36 458.903 1228.01 458.919 1227.3 458.952C1226.62 458.984 1225.86 459.016 1225.03 459.048C1224.19 459.113 1223.51 459.145 1223 459.145C1221.16 459.145 1219.71 458.791 1218.65 458.082C1217.58 457.34 1216.82 456.519 1216.37 455.616C1215.92 454.682 1215.7 453.924 1215.7 453.344C1215.02 454.279 1214 455.262 1212.65 456.293C1211.3 457.292 1209.48 458.146 1207.19 458.855C1204.9 459.532 1202 459.87 1198.49 459.87C1194.2 459.87 1190.72 458.597 1188.05 456.051C1185.4 453.473 1184.08 450.025 1184.08 445.707C1184.08 441.839 1185.15 438.891 1187.27 436.86C1189.4 434.83 1192.15 433.444 1195.54 432.703C1198.92 431.93 1202.48 431.543 1206.22 431.543C1207.35 431.543 1208.45 431.591 1209.51 431.688C1210.57 431.752 1211.52 431.817 1212.36 431.881L1215.02 432.268V426.806C1215.02 423.357 1214.67 420.795 1213.96 419.12C1213.25 417.412 1212.07 416.284 1210.43 415.736C1208.82 415.188 1206.62 414.914 1203.85 414.914C1200.63 414.914 1197.65 415.252 1194.91 415.929C1192.2 416.574 1189.9 417.267 1188 418.008L1188.96 410.854C1190.48 410.209 1192.48 409.597 1194.96 409.017C1197.44 408.404 1200.63 408.098 1204.53 408.098C1209.75 408.098 1213.76 408.791 1216.57 410.177C1219.37 411.562 1221.29 413.818 1222.32 416.944C1223.38 420.07 1223.91 424.244 1223.91 429.464V448.317ZM1207.67 437.102C1206.25 437.102 1204.66 437.183 1202.89 437.344C1201.11 437.473 1199.42 437.827 1197.81 438.407C1196.2 438.955 1194.86 439.841 1193.8 441.066C1192.77 442.258 1192.25 443.918 1192.25 446.045C1192.25 448.526 1193.04 450.363 1194.62 451.556C1196.23 452.748 1198.5 453.344 1201.44 453.344C1204.72 453.344 1207.48 452.893 1209.7 451.991C1211.96 451.056 1213.73 450.105 1215.02 449.139V437.392L1212.65 437.247L1207.67 437.102ZM1239.96 459V409.452L1246.2 408.872L1247.5 414.431C1248.28 413.851 1249.23 413.222 1250.36 412.545C1251.52 411.836 1252.84 411.192 1254.32 410.612C1255.77 410.032 1257.38 409.548 1259.15 409.162C1260.96 408.775 1262.88 408.582 1264.91 408.582C1267.45 408.582 1269.71 408.936 1271.67 409.645C1273.67 410.354 1275.36 411.514 1276.75 413.125C1278.14 414.705 1279.18 416.799 1279.89 419.41C1280.63 421.988 1281 425.13 1281 428.836V459H1272.06V430.77C1272.06 428.127 1271.92 425.839 1271.63 423.905C1271.34 421.972 1270.85 420.376 1270.18 419.12C1268.85 416.67 1266.52 415.446 1263.17 415.446C1261.36 415.446 1259.6 415.688 1257.9 416.171C1256.22 416.654 1254.71 417.17 1253.35 417.718C1252.58 418.04 1251.82 418.395 1251.08 418.781C1250.34 419.136 1249.61 419.522 1248.91 419.941V459H1239.96ZM1334.42 459.918C1331.91 459.918 1329.36 459.677 1326.78 459.193C1324.2 458.71 1321.72 458.033 1319.34 457.163L1318.42 449.864C1319.1 450.122 1320.26 450.508 1321.9 451.024C1323.54 451.507 1325.43 451.942 1327.55 452.329C1329.68 452.716 1331.79 452.909 1333.89 452.909C1335.92 452.909 1337.77 452.716 1339.45 452.329C1341.15 451.91 1342.52 451.153 1343.56 450.057C1344.59 448.929 1345.1 447.318 1345.1 445.223C1345.1 443.708 1344.76 442.468 1344.09 441.501C1343.41 440.502 1342.19 439.632 1340.41 438.891C1338.64 438.149 1336.09 437.36 1332.78 436.522C1327.97 435.297 1324.28 433.654 1321.71 431.591C1319.16 429.497 1317.89 426.113 1317.89 421.44C1317.89 418.185 1318.79 415.623 1320.59 413.754C1322.43 411.885 1324.77 410.563 1327.6 409.79C1330.47 408.984 1333.47 408.582 1336.59 408.582C1338.91 408.582 1341.19 408.775 1343.41 409.162C1345.67 409.516 1347.65 410 1349.36 410.612L1350.32 417.718C1349.19 417.363 1347.29 416.912 1344.62 416.364C1341.98 415.816 1339.32 415.542 1336.64 415.542C1333.74 415.542 1331.26 415.897 1329.2 416.606C1327.17 417.283 1326.15 418.958 1326.15 421.633C1326.15 423.051 1326.44 424.195 1327.02 425.065C1327.64 425.936 1328.8 426.709 1330.5 427.386C1332.21 428.03 1334.73 428.788 1338.04 429.658C1343.68 431.108 1347.66 432.993 1349.98 435.313C1352.34 437.602 1353.51 440.953 1353.51 445.368C1353.51 448.816 1352.63 451.62 1350.85 453.779C1349.08 455.906 1346.75 457.469 1343.85 458.468C1340.98 459.435 1337.83 459.918 1334.42 459.918ZM1379.18 459.87C1376.99 459.87 1375.14 459.596 1373.62 459.048C1372.11 458.5 1370.88 457.566 1369.95 456.245C1368.14 453.699 1367.24 449.187 1367.24 442.709V414.479H1360.38V409.452H1367.58L1368.84 393.983L1376.04 392.581V409.452H1388.41V414.479H1376.18V444.595C1376.18 448.075 1376.47 450.428 1377.05 451.652C1377.67 452.877 1379.15 453.489 1381.5 453.489C1382.37 453.489 1383.21 453.457 1384.02 453.393C1384.82 453.296 1385.55 453.183 1386.19 453.054L1388.22 452.619L1387.45 458.855C1387.16 458.984 1386.84 459.081 1386.48 459.145C1386.13 459.242 1385.74 459.322 1385.32 459.387C1384.61 459.516 1383.74 459.628 1382.71 459.725C1381.71 459.822 1380.54 459.87 1379.18 459.87ZM1398.23 459V409.452L1404.46 408.968L1406.16 414.672C1408.02 412.739 1410.1 411.24 1412.39 410.177C1414.68 409.113 1417.05 408.582 1419.5 408.582C1420.14 408.582 1420.77 408.646 1421.38 408.775C1421.99 408.872 1422.54 408.984 1423.03 409.113C1423.51 409.242 1424.04 409.419 1424.62 409.645L1423.56 416.558C1423.43 416.461 1423.2 416.348 1422.88 416.219C1422.62 416.155 1422.25 416.09 1421.77 416.026C1421.29 415.929 1420.66 415.881 1419.88 415.881C1418.05 415.881 1416.35 416.123 1414.81 416.606C1413.26 417.089 1411.92 417.605 1410.8 418.153C1410.15 418.475 1409.52 418.83 1408.91 419.216C1408.3 419.571 1407.72 419.958 1407.17 420.376V459H1398.23ZM1466.53 457.55C1465.4 457.969 1464.11 458.355 1462.66 458.71C1461.44 459 1460.01 459.258 1458.36 459.483C1456.72 459.741 1454.91 459.87 1452.95 459.87C1437.29 459.87 1429.46 451.507 1429.46 434.782C1429.46 430.109 1430 426.161 1431.1 422.938C1432.19 419.684 1433.71 416.993 1435.64 414.866C1437.58 412.739 1439.86 411.16 1442.51 410.128C1445.15 409.097 1448 408.582 1451.06 408.582C1455.06 408.582 1458.41 409.387 1461.12 410.999C1463.82 412.61 1465.87 414.737 1467.26 417.379C1468.67 419.99 1469.42 422.793 1469.48 425.791C1469.48 426.661 1469.43 427.756 1469.34 429.078C1469.27 430.367 1469.17 431.591 1469.05 432.751C1468.95 433.879 1468.84 434.637 1468.71 435.023H1438.69V436.764C1438.69 440.921 1439.32 444.192 1440.57 446.577C1441.83 448.961 1443.57 450.653 1445.79 451.652C1448.05 452.619 1450.64 453.103 1453.58 453.103C1455.41 453.103 1457.15 453.006 1458.8 452.812C1460.47 452.587 1461.96 452.345 1463.24 452.087C1464.76 451.797 1466.16 451.459 1467.45 451.072L1466.53 457.55ZM1451.26 415.204C1449.74 415.204 1448.28 415.446 1446.86 415.929C1445.47 416.38 1444.21 417.154 1443.09 418.25C1441.96 419.345 1441.01 420.795 1440.23 422.6C1439.49 424.373 1439.03 426.709 1438.83 429.609H1461.7C1461.7 428.997 1461.71 428.594 1461.75 428.401C1461.78 428.24 1461.79 427.982 1461.79 427.627V426.902C1461.67 422.81 1460.62 419.845 1458.65 418.008C1456.69 416.139 1454.22 415.204 1451.26 415.204ZM1515.98 448.317C1515.98 450.186 1516.18 451.346 1516.56 451.797C1516.95 452.216 1517.72 452.426 1518.88 452.426C1519.24 452.426 1519.61 452.426 1520 452.426C1520.41 452.394 1520.79 452.377 1521.11 452.377L1520.43 458.903C1520.43 458.903 1520.08 458.919 1519.37 458.952C1518.69 458.984 1517.93 459.016 1517.1 459.048C1516.26 459.113 1515.58 459.145 1515.06 459.145C1513.23 459.145 1511.78 458.791 1510.71 458.082C1509.65 457.34 1508.89 456.519 1508.44 455.616C1507.99 454.682 1507.77 453.924 1507.77 453.344C1507.09 454.279 1506.07 455.262 1504.72 456.293C1503.37 457.292 1501.55 458.146 1499.26 458.855C1496.97 459.532 1494.07 459.87 1490.56 459.87C1486.27 459.87 1482.79 458.597 1480.12 456.051C1477.47 453.473 1476.15 450.025 1476.15 445.707C1476.15 441.839 1477.21 438.891 1479.34 436.86C1481.47 434.83 1484.22 433.444 1487.61 432.703C1490.99 431.93 1494.55 431.543 1498.29 431.543C1499.42 431.543 1500.51 431.591 1501.58 431.688C1502.64 431.752 1503.59 431.817 1504.43 431.881L1507.09 432.268V426.806C1507.09 423.357 1506.73 420.795 1506.03 419.12C1505.32 417.412 1504.14 416.284 1502.5 415.736C1500.89 415.188 1498.69 414.914 1495.92 414.914C1492.7 414.914 1489.72 415.252 1486.98 415.929C1484.27 416.574 1481.97 417.267 1480.07 418.008L1481.03 410.854C1482.55 410.209 1484.55 409.597 1487.03 409.017C1489.51 408.404 1492.7 408.098 1496.6 408.098C1501.82 408.098 1505.83 408.791 1508.64 410.177C1511.44 411.562 1513.36 413.818 1514.39 416.944C1515.45 420.07 1515.98 424.244 1515.98 429.464V448.317ZM1499.74 437.102C1498.32 437.102 1496.73 437.183 1494.96 437.344C1493.18 437.473 1491.49 437.827 1489.88 438.407C1488.27 438.955 1486.93 439.841 1485.87 441.066C1484.84 442.258 1484.32 443.918 1484.32 446.045C1484.32 448.526 1485.11 450.363 1486.69 451.556C1488.3 452.748 1490.57 453.344 1493.51 453.344C1496.79 453.344 1499.55 452.893 1501.77 451.991C1504.03 451.056 1505.8 450.105 1507.09 449.139V437.392L1504.72 437.247L1499.74 437.102ZM1532.03 459V409.452L1538.27 408.872L1539.57 414.431C1542.15 412.529 1544.84 411.079 1547.65 410.08C1550.48 409.081 1553.51 408.582 1556.73 408.582C1559.96 408.582 1562.49 409.113 1564.32 410.177C1566.19 411.208 1567.5 412.674 1568.24 414.576C1570.33 412.835 1572.75 411.401 1575.49 410.273C1578.23 409.146 1581.6 408.582 1585.59 408.582C1590.17 408.582 1593.54 410.193 1595.7 413.416C1597.85 416.606 1598.93 421.456 1598.93 427.966V459H1589.94V431.833C1589.94 428.868 1589.83 426.338 1589.6 424.244C1589.41 422.149 1589.04 420.457 1588.49 419.168C1587.49 416.687 1585.64 415.446 1582.93 415.446C1581.52 415.446 1579.87 415.704 1578 416.219C1576.13 416.703 1574.41 417.299 1572.83 418.008C1571.25 418.717 1570.17 419.361 1569.59 419.941L1569.93 422.552C1570.03 423.486 1570.11 424.679 1570.17 426.129C1570.27 427.547 1570.32 429.271 1570.32 431.301V459H1561.33V430.141C1561.33 424.34 1560.88 420.409 1559.97 418.346C1559.49 417.218 1558.83 416.461 1557.99 416.074C1557.19 415.655 1556.17 415.446 1554.95 415.446C1552.11 415.446 1549.47 415.961 1547.02 416.993C1544.6 418.024 1542.59 419.007 1540.98 419.941V459H1532.03ZM1612.9 459.435V449.235H1622.09V459.435H1612.9ZM1688.51 460.16C1683.35 460.16 1678.78 459.435 1674.78 457.985C1670.78 456.502 1667.66 453.924 1665.4 450.25C1663.15 446.544 1662.02 441.388 1662.02 434.782V389.536H1671.25V434.202C1671.25 441.324 1672.62 446.238 1675.36 448.945C1676.78 450.331 1678.57 451.33 1680.73 451.942C1682.88 452.555 1685.46 452.861 1688.46 452.861C1694.33 452.861 1698.63 451.491 1701.37 448.752C1704.14 446.013 1705.52 441.163 1705.52 434.202V389.536H1714.71V434.83C1714.71 441.469 1713.56 446.625 1711.28 450.299C1709.02 453.973 1705.91 456.535 1701.95 457.985C1698.02 459.435 1693.54 460.16 1688.51 460.16ZM1729.74 459V409.452L1735.98 408.872L1737.28 414.431C1738.06 413.851 1739.01 413.222 1740.14 412.545C1741.3 411.836 1742.62 411.192 1744.1 410.612C1745.55 410.032 1747.16 409.548 1748.93 409.162C1750.74 408.775 1752.66 408.582 1754.69 408.582C1757.23 408.582 1759.49 408.936 1761.45 409.645C1763.45 410.354 1765.14 411.514 1766.53 413.125C1767.91 414.705 1768.96 416.799 1769.67 419.41C1770.41 421.988 1770.78 425.13 1770.78 428.836V459H1761.84V430.77C1761.84 428.127 1761.69 425.839 1761.4 423.905C1761.11 421.972 1760.63 420.376 1759.95 419.12C1758.63 416.67 1756.3 415.446 1752.95 415.446C1751.14 415.446 1749.38 415.688 1747.68 416.171C1746 416.654 1744.49 417.17 1743.13 417.718C1742.36 418.04 1741.6 418.395 1740.86 418.781C1740.12 419.136 1739.39 419.522 1738.69 419.941V459H1729.74ZM1785.62 459V390.406L1794.52 389.536V459H1785.62ZM1829.23 459.87C1824.26 459.87 1820.15 458.791 1816.9 456.631C1813.64 454.472 1811.23 451.475 1809.65 447.64C1808.07 443.805 1807.28 439.374 1807.28 434.347C1807.28 426.516 1809.07 420.264 1812.65 415.591C1816.25 410.918 1821.78 408.582 1829.23 408.582C1836.64 408.582 1842.13 410.918 1845.71 415.591C1849.32 420.264 1851.12 426.516 1851.12 434.347C1851.12 439.374 1850.33 443.805 1848.75 447.64C1847.18 451.475 1844.76 454.472 1841.5 456.631C1838.28 458.791 1834.19 459.87 1829.23 459.87ZM1829.23 453.103C1831.64 453.103 1833.67 452.651 1835.32 451.749C1836.99 450.847 1838.33 449.558 1839.33 447.882C1840.36 446.206 1841.08 444.208 1841.5 441.888C1841.92 439.535 1842.13 436.989 1842.13 434.25C1842.13 428.288 1841.18 423.664 1839.28 420.376C1837.38 417.089 1834.03 415.446 1829.23 415.446C1826.81 415.446 1824.78 415.865 1823.13 416.703C1821.52 417.508 1820.2 418.717 1819.17 420.328C1818.17 421.907 1817.45 423.873 1817 426.226C1816.54 428.546 1816.32 431.221 1816.32 434.25C1816.32 436.989 1816.54 439.535 1817 441.888C1817.45 444.208 1818.17 446.206 1819.17 447.882C1820.2 449.558 1821.52 450.847 1823.13 451.749C1824.78 452.651 1826.81 453.103 1829.23 453.103ZM1882.79 459.87C1880.11 459.87 1877.5 459.451 1874.96 458.613C1872.41 457.775 1870.14 456.374 1868.14 454.408C1866.11 452.41 1864.48 449.767 1863.26 446.48C1862.03 443.193 1861.42 439.213 1861.42 434.54C1861.42 431.253 1861.69 428.32 1862.24 425.742C1862.82 423.132 1863.61 420.86 1864.61 418.926C1865.58 416.96 1866.74 415.333 1868.09 414.044C1870.15 412.046 1872.41 410.644 1874.86 409.838C1877.34 409 1879.9 408.582 1882.54 408.582C1884.67 408.582 1886.6 408.727 1888.35 409.017C1890.09 409.274 1891.58 409.581 1892.84 409.935C1894.39 410.322 1895.71 410.773 1896.8 411.289L1897.53 417.814C1896.92 417.589 1896.26 417.379 1895.55 417.186C1894.87 416.96 1894.16 416.767 1893.42 416.606C1892.16 416.316 1890.71 416.042 1889.07 415.784C1887.43 415.526 1885.69 415.397 1883.85 415.397C1879.4 415.397 1876.12 416.864 1873.99 419.796C1872.89 421.343 1872.04 423.325 1871.43 425.742C1870.85 428.159 1870.56 431.043 1870.56 434.395C1870.56 440.808 1871.7 445.578 1873.99 448.704C1875.12 450.25 1876.5 451.378 1878.15 452.087C1879.79 452.764 1881.69 453.103 1883.85 453.103C1885.69 453.103 1887.43 452.99 1889.07 452.764C1890.75 452.506 1892.21 452.232 1893.47 451.942C1894.92 451.62 1896.29 451.233 1897.58 450.782L1896.8 457.211C1895.74 457.695 1894.44 458.146 1892.89 458.565C1891.66 458.919 1890.18 459.226 1888.44 459.483C1886.73 459.741 1884.85 459.87 1882.79 459.87ZM1908.7 459V390.406L1917.64 389.536V431.736L1940.31 409.452H1949.74V411.337L1928.37 431.978L1950.9 457.308V459H1941.71L1921.99 436.377L1917.64 440.389V459H1908.7ZM1992.66 457.55C1991.53 457.969 1990.25 458.355 1988.8 458.71C1987.57 459 1986.14 459.258 1984.49 459.483C1982.85 459.741 1981.04 459.87 1979.08 459.87C1963.42 459.87 1955.59 451.507 1955.59 434.782C1955.59 430.109 1956.13 426.161 1957.23 422.938C1958.33 419.684 1959.84 416.993 1961.77 414.866C1963.71 412.739 1966 411.16 1968.64 410.128C1971.28 409.097 1974.13 408.582 1977.19 408.582C1981.19 408.582 1984.54 409.387 1987.25 410.999C1989.96 412.61 1992 414.737 1993.39 417.379C1994.81 419.99 1995.55 422.793 1995.61 425.791C1995.61 426.661 1995.56 427.756 1995.47 429.078C1995.4 430.367 1995.31 431.591 1995.18 432.751C1995.08 433.879 1994.97 434.637 1994.84 435.023H1964.82V436.764C1964.82 440.921 1965.45 444.192 1966.7 446.577C1967.96 448.961 1969.7 450.653 1971.92 451.652C1974.18 452.619 1976.77 453.103 1979.71 453.103C1981.54 453.103 1983.28 453.006 1984.93 452.812C1986.6 452.587 1988.09 452.345 1989.38 452.087C1990.89 451.797 1992.29 451.459 1993.58 451.072L1992.66 457.55ZM1977.39 415.204C1975.87 415.204 1974.41 415.446 1972.99 415.929C1971.6 416.38 1970.35 417.154 1969.22 418.25C1968.09 419.345 1967.14 420.795 1966.37 422.6C1965.62 424.373 1965.16 426.709 1964.96 429.609H1987.83C1987.83 428.997 1987.84 428.594 1987.88 428.401C1987.91 428.24 1987.93 427.982 1987.93 427.627V426.902C1987.8 422.81 1986.75 419.845 1984.78 418.008C1982.82 416.139 1980.35 415.204 1977.39 415.204ZM2024.42 459.87C2022.04 459.87 2019.67 459.435 2017.32 458.565C2014.96 457.695 2012.87 456.261 2011.03 454.263C2009.16 452.265 2007.65 449.654 2006.49 446.432C2005.36 443.177 2004.8 439.197 2004.8 434.492C2004.8 428.369 2005.65 423.406 2007.36 419.603C2009.1 415.8 2011.4 413.013 2014.27 411.24C2017.14 409.468 2020.31 408.582 2023.79 408.582C2025.86 408.582 2027.76 408.791 2029.5 409.21C2031.24 409.597 2032.75 410.016 2034.04 410.467C2035.56 411.015 2036.93 411.627 2038.15 412.304V390.454L2047 389.536V459L2040.08 459.387L2038.54 454.069C2037.57 455.165 2036.41 456.132 2035.06 456.97C2033.9 457.711 2032.43 458.388 2030.66 459C2028.92 459.58 2026.84 459.87 2024.42 459.87ZM2025.82 453.103C2027.63 453.103 2029.27 452.861 2030.75 452.377C2032.27 451.894 2033.57 451.362 2034.67 450.782C2036.02 450.073 2037.18 449.284 2038.15 448.414V418.733C2036.99 418.153 2035.72 417.605 2034.33 417.089C2033.14 416.67 2031.77 416.3 2030.22 415.978C2028.68 415.623 2027 415.446 2025.2 415.446C2021.33 415.446 2018.44 417.122 2016.54 420.473C2014.64 423.825 2013.69 428.562 2013.69 434.685C2013.69 438.037 2014.01 440.889 2014.66 443.241C2015.33 445.562 2016.22 447.447 2017.32 448.897C2018.44 450.379 2019.73 451.459 2021.18 452.136C2022.63 452.78 2024.18 453.103 2025.82 453.103ZM2061.31 459.435V449.235H2070.49V459.435H2061.31Z" fill="#686868"/>
</g>
<defs>
<clipPath id="clip0_1_2696">
<rect width="2050" height="512" fill="white"/>
</clipPath>
</defs>
</svg>
